<svg width="64" height="64" viewBox="0 0 64 64" fill="none" xmlns="http://www.w3.org/2000/svg">
<g clip-path="url(#clip0_909_22909)">
<path d="M32 64C31.1712 64 30.3763 63.6708 29.7903 63.0847C29.2042 62.4987 28.875 61.7038 28.875 60.875V3.125C28.875 2.2962 29.2042 1.50134 29.7903 0.915291C30.3763 0.32924 31.1712 0 32 0C32.8288 0 33.6237 0.32924 34.2097 0.915291C34.7958 1.50134 35.125 2.2962 35.125 3.125V60.875C35.125 61.7038 34.7958 62.4987 34.2097 63.0847C33.6237 63.6708 32.8288 64 32 64Z" fill="#3A73C2"/>
<path d="M60.875 35.125H3.125C2.2962 35.125 1.50134 34.7958 0.915291 34.2097C0.32924 33.6237 0 32.8288 0 32C0 31.1712 0.32924 30.3763 0.915291 29.7903C1.50134 29.2042 2.2962 28.875 3.125 28.875H60.875C61.7038 28.875 62.4987 29.2042 63.0847 29.7903C63.6708 30.3763 64 31.1712 64 32C64 32.8288 63.6708 33.6237 63.0847 34.2097C62.4987 34.7958 61.7038 35.125 60.875 35.125Z" fill="#3A73C2"/>
</g>
<defs>
<clipPath id="clip0_909_22909">
<rect width="64" height="64" fill="white"/>
</clipPath>
</defs>
</svg>
