<svg width="24" height="24" viewBox="0 0 24 24" fill="none" xmlns="http://www.w3.org/2000/svg">
<path d="M5.9998 21.5566H3.33327C2.97966 21.5566 2.64054 21.3836 2.39051 21.0755C2.14047 20.7675 2 20.3497 2 19.914V3.48803C2 3.05238 2.14047 2.63458 2.39051 2.32654C2.64054 2.01849 2.97966 1.84543 3.33327 1.84543H5.9998C6.35341 1.84543 6.69253 2.01849 6.94257 2.32654C7.1926 2.63458 7.33307 3.05238 7.33307 3.48803V19.914C7.33307 20.3497 7.1926 20.7675 6.94257 21.0755C6.69253 21.3836 6.35341 21.5566 5.9998 21.5566ZM3.33327 2.9405C3.2154 2.9405 3.10236 2.99818 3.01901 3.10086C2.93567 3.20355 2.88885 3.34281 2.88885 3.48803V19.914C2.88885 20.0592 2.93567 20.1985 3.01901 20.3012C3.10236 20.4039 3.2154 20.4616 3.33327 20.4616H5.9998C6.11767 20.4616 6.23071 20.4039 6.31406 20.3012C6.3974 20.1985 6.44423 20.0592 6.44423 19.914V3.48803C6.44423 3.34281 6.3974 3.20355 6.31406 3.10086C6.23071 2.99818 6.11767 2.9405 5.9998 2.9405H3.33327Z" fill="white"/>
<path d="M5.55538 6.2257H3.77769C3.65982 6.2257 3.54678 6.16801 3.46344 6.06533C3.38009 5.96265 3.33327 5.82338 3.33327 5.67816C3.33327 5.53295 3.38009 5.39368 3.46344 5.291C3.54678 5.18832 3.65982 5.13063 3.77769 5.13063H5.55538C5.67325 5.13063 5.78629 5.18832 5.86964 5.291C5.95298 5.39368 5.9998 5.53295 5.9998 5.67816C5.9998 5.82338 5.95298 5.96265 5.86964 6.06533C5.78629 6.16801 5.67325 6.2257 5.55538 6.2257ZM5.55538 18.2714H3.77769C3.65982 18.2714 3.54678 18.2137 3.46344 18.1111C3.38009 18.0084 3.33327 17.8691 3.33327 17.7239C3.33327 17.5787 3.38009 17.4394 3.46344 17.3367C3.54678 17.2341 3.65982 17.1764 3.77769 17.1764H5.55538C5.67325 17.1764 5.78629 17.2341 5.86964 17.3367C5.95298 17.4394 5.9998 17.5787 5.9998 17.7239C5.9998 17.8691 5.95298 18.0084 5.86964 18.1111C5.78629 18.2137 5.67325 18.2714 5.55538 18.2714ZM11.7773 21.5566H9.11076C8.75716 21.5566 8.41804 21.3836 8.168 21.0755C7.91796 20.7675 7.7775 20.3497 7.7775 19.914V3.48803C7.7775 3.05238 7.91796 2.63458 8.168 2.32654C8.41804 2.01849 8.75716 1.84543 9.11076 1.84543H11.7773C12.1309 1.84543 12.47 2.01849 12.7201 2.32654C12.9701 2.63458 13.1106 3.05238 13.1106 3.48803V19.914C13.1106 20.3497 12.9701 20.7675 12.7201 21.0755C12.47 21.3836 12.1309 21.5566 11.7773 21.5566ZM9.11076 2.9405C8.9929 2.9405 8.87985 2.99818 8.79651 3.10086C8.71316 3.20355 8.66634 3.34281 8.66634 3.48803V19.914C8.66634 20.0592 8.71316 20.1985 8.79651 20.3012C8.87985 20.4039 8.9929 20.4616 9.11076 20.4616H11.7773C11.8952 20.4616 12.0082 20.4039 12.0916 20.3012C12.1749 20.1985 12.2217 20.0592 12.2217 19.914V3.48803C12.2217 3.34281 12.1749 3.20355 12.0916 3.10086C12.0082 2.99818 11.8952 2.9405 11.7773 2.9405H9.11076Z" fill="white"/>
<path d="M11.3329 6.2257H9.55519C9.43732 6.2257 9.32428 6.16801 9.24093 6.06533C9.15759 5.96265 9.11076 5.82338 9.11076 5.67816C9.11076 5.53295 9.15759 5.39368 9.24093 5.291C9.32428 5.18832 9.43732 5.13063 9.55519 5.13063H11.3329C11.4507 5.13063 11.5638 5.18832 11.6471 5.291C11.7305 5.39368 11.7773 5.53295 11.7773 5.67816C11.7773 5.82338 11.7305 5.96265 11.6471 6.06533C11.5638 6.16801 11.4507 6.2257 11.3329 6.2257ZM11.3329 18.2714H9.55519C9.43732 18.2714 9.32428 18.2137 9.24093 18.1111C9.15759 18.0084 9.11076 17.8691 9.11076 17.7239C9.11076 17.5787 9.15759 17.4394 9.24093 17.3367C9.32428 17.2341 9.43732 17.1764 9.55519 17.1764H11.3329C11.4507 17.1764 11.5638 17.2341 11.6471 17.3367C11.7305 17.4394 11.7773 17.5787 11.7773 17.7239C11.7773 17.8691 11.7305 18.0084 11.6471 18.1111C11.5638 18.2137 11.4507 18.2714 11.3329 18.2714ZM18.0881 21.5566C17.795 21.5558 17.5104 21.436 17.2781 21.2158C17.0459 20.9955 16.879 20.6872 16.8033 20.3384L13.3514 4.47359C13.26 4.05283 13.3079 3.60453 13.4846 3.22728C13.6614 2.85004 13.9526 2.57474 14.2941 2.46195L16.8695 1.61163C17.211 1.50011 17.5745 1.55965 17.8806 1.77724C18.1866 1.99484 18.4103 2.35281 18.5028 2.77295L21.9546 18.6383C22.0461 19.059 21.9982 19.5073 21.8214 19.8846C21.6446 20.2618 21.3535 20.5371 21.012 20.6499L18.4348 21.5019C18.3216 21.5386 18.2051 21.557 18.0881 21.5566ZM17.2144 2.64976C17.1757 2.64978 17.1371 2.65604 17.0997 2.66837L14.5243 3.51869C14.4678 3.53725 14.4149 3.56934 14.3686 3.61313C14.3222 3.65691 14.2833 3.71152 14.2541 3.77384C14.2246 3.83588 14.2055 3.90455 14.1978 3.97583C14.1902 4.0471 14.1942 4.11954 14.2096 4.18887L17.6601 20.0553C17.6752 20.1248 17.7013 20.1899 17.7368 20.2469C17.7724 20.304 17.8167 20.3518 17.8673 20.3878C17.9178 20.4237 17.9736 20.4471 18.0315 20.4564C18.0894 20.4658 18.1482 20.461 18.2045 20.4424L20.7822 19.5926C20.8386 19.574 20.8915 19.5419 20.9379 19.4981C20.9842 19.4542 21.0231 19.3996 21.0523 19.3372C21.0814 19.2749 21.1004 19.2061 21.1079 19.1347C21.1155 19.0634 21.1116 18.9909 21.0964 18.9214L17.6437 3.05548C17.6183 2.93907 17.5625 2.83621 17.4849 2.76285C17.4073 2.68949 17.3122 2.64974 17.2144 2.64976Z" fill="white"/>
<path d="M15.5278 6.569C15.42 6.5688 15.316 6.52035 15.235 6.43268C15.1541 6.34501 15.1018 6.2241 15.0878 6.09244C15.0738 5.96078 15.0992 5.82736 15.1591 5.717C15.219 5.60664 15.3095 5.52688 15.4136 5.49255L17.1308 4.9253C17.1873 4.90634 17.2463 4.9013 17.3043 4.91049C17.3624 4.91968 17.4184 4.9429 17.4691 4.97884C17.5199 5.01477 17.5644 5.0627 17.6001 5.11988C17.6357 5.17706 17.6619 5.24236 17.677 5.31202C17.6922 5.38169 17.696 5.45435 17.6882 5.52584C17.6805 5.59733 17.6614 5.66623 17.632 5.72859C17.6026 5.79095 17.5635 5.84554 17.5169 5.88922C17.4703 5.93291 17.4172 5.96482 17.3606 5.98314L15.6438 6.54984C15.606 6.56266 15.567 6.56911 15.5278 6.569ZM18.0588 18.2041C17.951 18.204 17.8468 18.1557 17.7658 18.068C17.6848 17.9804 17.6324 17.8595 17.6184 17.7278C17.6043 17.5961 17.6296 17.4626 17.6896 17.3522C17.7495 17.2418 17.84 17.162 17.9441 17.1276L19.6609 16.5609C19.7748 16.5233 19.8961 16.543 19.9982 16.6156C20.1003 16.6882 20.1748 16.8078 20.2053 16.948C20.2359 17.0883 20.2199 17.2378 20.161 17.3636C20.1021 17.4894 20.005 17.5812 19.8911 17.6188L18.1743 18.1855C18.1366 18.1978 18.0978 18.2041 18.0588 18.2041Z" fill="white"/>
</svg>
