<svg width="16" height="17" viewBox="0 0 16 17" fill="none" xmlns="http://www.w3.org/2000/svg">
<path d="M13.3535 7.22024L8.35354 12.2202C8.3071 12.2667 8.25196 12.3036 8.19126 12.3288C8.13056 12.3539 8.0655 12.3669 7.99979 12.3669C7.93408 12.3669 7.86902 12.3539 7.80832 12.3288C7.74762 12.3036 7.69248 12.2667 7.64604 12.2202L2.64604 7.22024C2.55222 7.12642 2.49951 6.99917 2.49951 6.86649C2.49951 6.73381 2.55222 6.60656 2.64604 6.51274C2.73986 6.41892 2.86711 6.36621 2.99979 6.36621C3.13247 6.36621 3.25972 6.41892 3.35354 6.51274L7.99979 11.1596L12.646 6.51274C12.6925 6.46628 12.7476 6.42943 12.8083 6.40429C12.869 6.37915 12.9341 6.36621 12.9998 6.36621C13.0655 6.36621 13.1305 6.37915 13.1912 6.40429C13.2519 6.42943 13.3071 6.46628 13.3535 6.51274C13.4 6.55919 13.4368 6.61434 13.462 6.67504C13.4871 6.73574 13.5001 6.80079 13.5001 6.86649C13.5001 6.93219 13.4871 6.99724 13.462 7.05794C13.4368 7.11863 13.4 7.17378 13.3535 7.22024Z" fill="#7E8695"/>
</svg>
