<svg width="12" height="12" viewBox="0 0 12 12" fill="none" xmlns="http://www.w3.org/2000/svg">
<path d="M9.64012 9.48465C9.67496 9.51949 9.7026 9.56086 9.72145 9.60638C9.74031 9.6519 9.75002 9.70069 9.75002 9.74996C9.75002 9.79924 9.74031 9.84803 9.72145 9.89355C9.7026 9.93907 9.67496 9.98044 9.64012 10.0153C9.60528 10.0501 9.56392 10.0778 9.51839 10.0966C9.47287 10.1155 9.42408 10.1252 9.37481 10.1252C9.32553 10.1252 9.27674 10.1155 9.23122 10.0966C9.1857 10.0778 9.14434 10.0501 9.10949 10.0153L5.35949 6.26528C5.32463 6.23045 5.29697 6.18909 5.2781 6.14357C5.25923 6.09804 5.24951 6.04925 5.24951 5.99996C5.24951 5.95068 5.25923 5.90189 5.2781 5.85636C5.29697 5.81084 5.32463 5.76948 5.35949 5.73465L9.10949 1.98465C9.17986 1.91429 9.27529 1.87476 9.37481 1.87476C9.47432 1.87476 9.56975 1.91429 9.64012 1.98465C9.71048 2.05502 9.75002 2.15045 9.75002 2.24996C9.75002 2.34948 9.71048 2.44491 9.64012 2.51528L6.15496 5.99996L9.64012 9.48465ZM2.40496 5.99996L5.89012 2.51528C5.96048 2.44491 6.00002 2.34948 6.00002 2.24996C6.00002 2.15045 5.96048 2.05502 5.89012 1.98465C5.81975 1.91429 5.72432 1.87476 5.62481 1.87476C5.5253 1.87476 5.42986 1.91429 5.35949 1.98465L1.60949 5.73465C1.57463 5.76948 1.54697 5.81084 1.5281 5.85636C1.50923 5.90189 1.49951 5.95068 1.49951 5.99996C1.49951 6.04925 1.50923 6.09804 1.5281 6.14357C1.54697 6.18909 1.57463 6.23045 1.60949 6.26528L5.35949 10.0153C5.39434 10.0501 5.4357 10.0778 5.48122 10.0966C5.52674 10.1155 5.57553 10.1252 5.62481 10.1252C5.67408 10.1252 5.72287 10.1155 5.76839 10.0966C5.81392 10.0778 5.85528 10.0501 5.89012 10.0153C5.92496 9.98044 5.9526 9.93907 5.97145 9.89355C5.99031 9.84803 6.00002 9.79924 6.00002 9.74996C6.00002 9.70069 5.99031 9.6519 5.97145 9.60638C5.9526 9.56086 5.92496 9.51949 5.89012 9.48465L2.40496 5.99996Z" fill="#9AA0AC"/>
</svg>
