<svg width="12" height="12" viewBox="0 0 12 12" fill="none" xmlns="http://www.w3.org/2000/svg">
<path d="M7.76512 9.48465C7.79996 9.51949 7.8276 9.56086 7.84645 9.60638C7.86531 9.6519 7.87502 9.70069 7.87502 9.74996C7.87502 9.79924 7.86531 9.84803 7.84645 9.89355C7.8276 9.93907 7.79996 9.98044 7.76512 10.0153C7.73028 10.0501 7.68892 10.0778 7.64339 10.0966C7.59787 10.1155 7.54908 10.1252 7.49981 10.1252C7.45053 10.1252 7.40174 10.1155 7.35622 10.0966C7.3107 10.0778 7.26934 10.0501 7.23449 10.0153L3.48449 6.26528C3.44963 6.23045 3.42197 6.18909 3.4031 6.14357C3.38423 6.09804 3.37451 6.04925 3.37451 5.99996C3.37451 5.95068 3.38423 5.90189 3.4031 5.85636C3.42197 5.81084 3.44963 5.76948 3.48449 5.73465L7.23449 1.98465C7.30486 1.91429 7.4003 1.87476 7.49981 1.87476C7.59932 1.87476 7.69475 1.91429 7.76512 1.98465C7.83548 2.05502 7.87502 2.15045 7.87502 2.24996C7.87502 2.34948 7.83548 2.44491 7.76512 2.51528L4.27996 5.99996L7.76512 9.48465Z" fill="#9AA0AC"/>
</svg>
