<svg width="12" height="12" viewBox="0 0 12 12" fill="none" xmlns="http://www.w3.org/2000/svg">
<path d="M6.64052 6.26528L2.89052 10.0153C2.82016 10.0856 2.72472 10.1252 2.62521 10.1252C2.5257 10.1252 2.43026 10.0856 2.3599 10.0153C2.28953 9.94491 2.25 9.84948 2.25 9.74996C2.25 9.65045 2.28953 9.55502 2.3599 9.48465L5.84505 5.99996L2.3599 2.51528C2.28953 2.44491 2.25 2.34948 2.25 2.24996C2.25 2.15045 2.28953 2.05502 2.3599 1.98465C2.43026 1.91429 2.5257 1.87476 2.62521 1.87476C2.72472 1.87476 2.82016 1.91429 2.89052 1.98465L6.64052 5.73465C6.67539 5.76948 6.70305 5.81084 6.72192 5.85636C6.74079 5.90189 6.7505 5.95068 6.7505 5.99996C6.7505 6.04925 6.74079 6.09804 6.72192 6.14357C6.70305 6.18909 6.67539 6.23045 6.64052 6.26528ZM10.3905 5.73465L6.64052 1.98465C6.57016 1.91429 6.47472 1.87476 6.37521 1.87476C6.2757 1.87476 6.18026 1.91429 6.1099 1.98465C6.03953 2.05502 6 2.15045 6 2.24996C6 2.34948 6.03953 2.44491 6.1099 2.51528L9.59505 5.99996L6.1099 9.48465C6.03953 9.55502 6 9.65045 6 9.74996C6 9.84948 6.03953 9.94491 6.1099 10.0153C6.18026 10.0856 6.2757 10.1252 6.37521 10.1252C6.47472 10.1252 6.57016 10.0856 6.64052 10.0153L10.3905 6.26528C10.4254 6.23045 10.453 6.18909 10.4719 6.14357C10.4908 6.09804 10.5005 6.04925 10.5005 5.99996C10.5005 5.95068 10.4908 5.90189 10.4719 5.85636C10.453 5.81084 10.4254 5.76948 10.3905 5.73465Z" fill="#9AA0AC"/>
</svg>
