<svg width="20" height="20" viewBox="0 0 20 20" fill="none" xmlns="http://www.w3.org/2000/svg">
<path d="M13.3575 12.8264C12.8836 12.8264 12.4981 12.4928 12.4981 12.0827C12.4981 11.6725 12.8836 11.3388 13.3575 11.3388C13.8314 11.3388 14.2169 11.6725 14.2169 12.0827C14.2169 12.2984 14.3918 12.4733 14.6075 12.4733C14.8232 12.4733 14.9981 12.2984 14.9981 12.0827C14.9981 11.3668 14.4648 10.765 13.7481 10.6016V10.3984C13.7481 10.1827 13.5732 10.0078 13.3575 10.0078C13.1418 10.0078 12.9669 10.1827 12.9669 10.3984V10.6016C12.2502 10.765 11.7169 11.3668 11.7169 12.0827C11.7169 12.9236 12.4529 13.6077 13.3575 13.6077C13.8314 13.6077 14.2169 13.9414 14.2169 14.3515C14.2169 14.7617 13.8314 15.0954 13.3575 15.0954C12.8836 15.0954 12.4981 14.7617 12.4981 14.3515C12.4981 14.1358 12.3232 13.9609 12.1075 13.9609C11.8918 13.9609 11.7169 14.1358 11.7169 14.3515C11.7169 15.0673 12.2502 15.6692 12.9669 15.8326V16.0013C12.9669 16.217 13.1418 16.392 13.3575 16.392C13.5732 16.392 13.7481 16.217 13.7481 16.0013V15.8326C14.4648 15.6692 14.9981 15.0673 14.9981 14.3515C14.9981 13.5106 14.2621 12.8264 13.3575 12.8264ZM17.6359 10.5029C17.1268 9.70883 16.4071 9.07184 15.557 8.66305C15.3625 8.56953 15.1291 8.65141 15.0356 8.84586C14.9421 9.04031 15.024 9.27367 15.2184 9.36715C16.6993 10.079 17.6562 11.6001 17.6562 13.2422C17.6562 13.9448 17.483 14.6417 17.1554 15.2575C17.054 15.4479 17.1262 15.6845 17.3167 15.7858C17.4082 15.8344 17.5152 15.8448 17.6143 15.8145C17.7134 15.7843 17.7964 15.7159 17.845 15.6244C18.2326 14.8961 18.4374 14.0723 18.4374 13.2422C18.4374 12.2672 18.1603 11.32 17.6359 10.5029ZM13.9715 8.1641L13.9452 8.16406C13.7295 8.16406 13.5546 8.33895 13.5546 8.55469C13.5546 8.77043 13.7295 8.94531 13.9452 8.94531L13.9679 8.94535H13.9697C14.1846 8.94535 14.3593 8.77168 14.3603 8.55656C14.3613 8.34082 14.1872 8.16512 13.9715 8.1641ZM11.5002 17.1172C10.0193 16.4053 9.0625 14.8843 9.0625 13.2422C9.0625 12.5395 9.2357 11.8427 9.56332 11.2269C9.66465 11.0365 9.59242 10.7999 9.40195 10.6986C9.21156 10.5973 8.97492 10.6695 8.87363 10.86C8.48609 11.5883 8.28125 12.412 8.28125 13.2422C8.28125 14.2172 8.5584 15.1644 9.08273 15.9814C9.59185 16.7755 10.3116 17.4125 11.1617 17.8214C11.2548 17.864 11.3608 17.8684 11.4571 17.8336C11.5534 17.7988 11.6321 17.7276 11.6765 17.6354C11.7208 17.5431 11.7272 17.4372 11.6942 17.3403C11.6613 17.2434 11.5916 17.1633 11.5002 17.1172ZM12.7734 17.5391L12.7508 17.539C12.5341 17.5386 12.3594 17.712 12.3584 17.9278C12.3574 18.1435 12.5316 18.3192 12.7473 18.3202L12.7734 18.3203C12.9891 18.3203 13.1641 18.1454 13.1641 17.9297C13.1641 17.714 12.9891 17.5391 12.7734 17.5391Z" fill="#3A73C2"/>
<path d="M15.1331 6.84249C15.0862 6.73053 15.0281 6.62363 14.9596 6.52342H15.9765C16.9673 6.52342 17.7734 5.71733 17.7734 4.72655C17.7734 3.73577 16.9673 2.92968 15.9765 2.92968H12.8484C13.0543 2.63104 13.1644 2.27679 13.164 1.91406C13.164 0.92328 12.3579 0.117188 11.3672 0.117188H1.79687C0.806092 0.117188 0 0.92328 0 1.91406C0 2.90484 0.806092 3.71093 1.79687 3.71093H4.92499C4.72612 4.00007 4.60937 4.34987 4.60937 4.72655C4.60937 5.10323 4.72608 5.45304 4.92499 5.74218H3.90624C2.91546 5.74218 2.10937 6.54827 2.10937 7.53905C2.10937 8.10807 2.37554 8.61584 2.78964 8.94529C2.37554 9.27475 2.10937 9.78252 2.10937 10.3515C2.10937 10.9206 2.37554 11.4283 2.78964 11.7578C2.37554 12.0872 2.10937 12.595 2.10937 13.164C2.10937 13.7331 2.37554 14.2408 2.78964 14.5703C2.37554 14.8997 2.10937 15.4075 2.10937 15.9765C2.10937 16.9673 2.91546 17.7734 3.90624 17.7734H8.50975C9.72248 19.0705 11.4477 19.8828 13.3594 19.8828C17.021 19.8828 20 16.9038 20 13.2422C20 10.1947 17.9363 7.62041 15.1331 6.84249ZM15.9765 3.71093C16.5366 3.71093 16.9922 4.16655 16.9922 4.72655C16.9922 5.28655 16.5366 5.74218 15.9765 5.74218H6.40624C5.8462 5.74218 5.39061 5.28655 5.39061 4.72655C5.39061 4.16655 5.8462 3.71093 6.40624 3.71093H15.9765ZM1.79687 2.92968C1.23683 2.92968 0.781248 2.47406 0.781248 1.91406C0.781248 1.35406 1.23683 0.898436 1.79687 0.898436H11.3672C11.9272 0.898436 12.3828 1.35406 12.3828 1.91406C12.3828 2.47406 11.9272 2.92968 11.3672 2.92968H1.79687ZM3.90624 6.52342H13.4765C13.6339 6.52342 13.7845 6.55999 13.9197 6.62546C13.7349 6.60995 13.5481 6.60159 13.3594 6.60159C11.5256 6.60159 9.86311 7.34881 8.66022 8.55467H3.90624C3.34624 8.55467 2.89062 8.09905 2.89062 7.53905C2.89062 6.97905 3.34624 6.52342 3.90624 6.52342ZM3.90624 9.33592H7.99276C7.54932 9.94346 7.20647 10.6287 6.98874 11.3672H3.90624C3.3462 11.3672 2.89062 10.9116 2.89062 10.3515C2.89062 9.79154 3.3462 9.33592 3.90624 9.33592ZM3.90624 12.1484H6.80936C6.74911 12.5099 6.71881 12.8757 6.71878 13.2422C6.71878 13.5604 6.74178 13.8733 6.78526 14.1797H3.90624C3.3462 14.1797 2.89062 13.7241 2.89062 13.164C2.89062 12.604 3.3462 12.1484 3.90624 12.1484ZM3.90624 16.9922C3.3462 16.9922 2.89062 16.5366 2.89062 15.9765C2.89062 15.4165 3.3462 14.9609 3.90624 14.9609H6.94475C7.13957 15.6863 7.45651 16.3732 7.88198 16.9922H3.90624ZM13.3594 19.1016C10.1285 19.1016 7.50002 16.4731 7.50002 13.2422C7.50002 10.0113 10.1285 7.38284 13.3594 7.38284C16.5902 7.38284 19.2188 10.0113 19.2188 13.2422C19.2188 16.4731 16.5902 19.1016 13.3594 19.1016Z" fill="#3A73C2"/>
</svg>
