<svg width="20" height="21" viewBox="0 0 20 21" fill="none" xmlns="http://www.w3.org/2000/svg">
<path d="M10 8C9.50555 8 9.0222 8.14662 8.61108 8.42133C8.19995 8.69603 7.87952 9.08648 7.6903 9.54329C7.50108 10.0001 7.45157 10.5028 7.54804 10.9877C7.6445 11.4727 7.8826 11.9181 8.23223 12.2678C8.58187 12.6174 9.02732 12.8555 9.51228 12.952C9.99723 13.0484 10.4999 12.9989 10.9567 12.8097C11.4135 12.6205 11.804 12.3 12.0787 11.8889C12.3534 11.4778 12.5 10.9945 12.5 10.5C12.5 9.83696 12.2366 9.20107 11.7678 8.73223C11.2989 8.26339 10.663 8 10 8ZM10 11.75C9.75277 11.75 9.5111 11.6767 9.30554 11.5393C9.09998 11.402 8.93976 11.2068 8.84515 10.9784C8.75054 10.7499 8.72579 10.4986 8.77402 10.2561C8.82225 10.0137 8.9413 9.79093 9.11612 9.61612C9.29093 9.4413 9.51366 9.32225 9.75614 9.27402C9.99861 9.22579 10.2499 9.25054 10.4784 9.34515C10.7068 9.43976 10.902 9.59998 11.0393 9.80554C11.1767 10.0111 11.25 10.2528 11.25 10.5C11.25 10.8315 11.1183 11.1495 10.8839 11.3839C10.6495 11.6183 10.3315 11.75 10 11.75ZM3.75 8C3.25555 8 2.7722 8.14662 2.36108 8.42133C1.94995 8.69603 1.62952 9.08648 1.4403 9.54329C1.25108 10.0001 1.20157 10.5028 1.29804 10.9877C1.3945 11.4727 1.6326 11.9181 1.98223 12.2678C2.33187 12.6174 2.77732 12.8555 3.26228 12.952C3.74723 13.0484 4.24989 12.9989 4.70671 12.8097C5.16352 12.6205 5.55397 12.3 5.82868 11.8889C6.10338 11.4778 6.25 10.9945 6.25 10.5C6.25 9.83696 5.98661 9.20107 5.51777 8.73223C5.04893 8.26339 4.41304 8 3.75 8ZM3.75 11.75C3.50277 11.75 3.2611 11.6767 3.05554 11.5393C2.84998 11.402 2.68976 11.2068 2.59515 10.9784C2.50054 10.7499 2.47579 10.4986 2.52402 10.2561C2.57225 10.0137 2.6913 9.79093 2.86612 9.61612C3.04093 9.4413 3.26366 9.32225 3.50614 9.27402C3.74861 9.22579 3.99995 9.25054 4.22836 9.34515C4.45676 9.43976 4.65199 9.59998 4.78934 9.80554C4.92669 10.0111 5 10.2528 5 10.5C5 10.8315 4.86831 11.1495 4.63388 11.3839C4.39946 11.6183 4.08152 11.75 3.75 11.75ZM16.25 8C15.7555 8 15.2722 8.14662 14.8611 8.42133C14.45 8.69603 14.1295 9.08648 13.9403 9.54329C13.7511 10.0001 13.7016 10.5028 13.798 10.9877C13.8945 11.4727 14.1326 11.9181 14.4822 12.2678C14.8319 12.6174 15.2773 12.8555 15.7623 12.952C16.2472 13.0484 16.7499 12.9989 17.2067 12.8097C17.6635 12.6205 18.054 12.3 18.3287 11.8889C18.6034 11.4778 18.75 10.9945 18.75 10.5C18.75 9.83696 18.4866 9.20107 18.0178 8.73223C17.5489 8.26339 16.913 8 16.25 8ZM16.25 11.75C16.0028 11.75 15.7611 11.6767 15.5555 11.5393C15.35 11.402 15.1898 11.2068 15.0952 10.9784C15.0005 10.7499 14.9758 10.4986 15.024 10.2561C15.0723 10.0137 15.1913 9.79093 15.3661 9.61612C15.5409 9.4413 15.7637 9.32225 16.0061 9.27402C16.2486 9.22579 16.4999 9.25054 16.7284 9.34515C16.9568 9.43976 17.152 9.59998 17.2893 9.80554C17.4267 10.0111 17.5 10.2528 17.5 10.5C17.5 10.8315 17.3683 11.1495 17.1339 11.3839C16.8995 11.6183 16.5815 11.75 16.25 11.75Z" fill="#7E8695"/>
</svg>
