<svg width="24" height="24" viewBox="0 0 24 24" fill="none" xmlns="http://www.w3.org/2000/svg">
<g clip-path="url(#clip0_11760_188155)">
<path d="M12 2C10.0222 2 8.08879 2.58649 6.4443 3.6853C4.79981 4.78412 3.51809 6.3459 2.76121 8.17316C2.00433 10.0004 1.8063 12.0111 2.19215 13.9509C2.578 15.8907 3.53041 17.6725 4.92894 19.0711C6.32746 20.4696 8.10929 21.422 10.0491 21.8078C11.9889 22.1937 13.9996 21.9957 15.8268 21.2388C17.6541 20.4819 19.2159 19.2002 20.3147 17.5557C21.4135 15.9112 22 13.9778 22 12C22 9.34783 20.9464 6.8043 19.0711 4.92893C17.1957 3.05357 14.6522 2 12 2ZM10.7583 7C10.7583 6.66848 10.89 6.35054 11.1245 6.11612C11.3589 5.8817 11.6768 5.75 12.0083 5.75C12.3399 5.75 12.6578 5.8817 12.8922 6.11612C13.1266 6.35054 13.2583 6.66848 13.2583 7V12.7417C13.2583 12.9058 13.226 13.0684 13.1632 13.22C13.1004 13.3717 13.0083 13.5095 12.8922 13.6255C12.7761 13.7416 12.6383 13.8337 12.4867 13.8965C12.335 13.9593 12.1725 13.9917 12.0083 13.9917C11.8442 13.9917 11.6816 13.9593 11.53 13.8965C11.3783 13.8337 11.2405 13.7416 11.1245 13.6255C11.0084 13.5095 10.9163 13.3717 10.8535 13.22C10.7907 13.0684 10.7583 12.9058 10.7583 12.7417V7ZM12 18.25C11.7165 18.25 11.4394 18.1659 11.2037 18.0084C10.968 17.8509 10.7843 17.6271 10.6758 17.3652C10.5673 17.1033 10.5389 16.8151 10.5942 16.537C10.6495 16.259 10.786 16.0036 10.9865 15.8031C11.1869 15.6027 11.4423 15.4662 11.7204 15.4109C11.9984 15.3556 12.2866 15.384 12.5485 15.4924C12.8104 15.6009 13.0343 15.7846 13.1918 16.0203C13.3493 16.2561 13.4333 16.5332 13.4333 16.8167C13.4333 17.1968 13.2823 17.5614 13.0135 17.8302C12.7447 18.099 12.3801 18.25 12 18.25Z" fill="#F73131"/>
</g>
<defs>
<clipPath id="clip0_11760_188155">
<rect width="24" height="24" fill="white"/>
</clipPath>
</defs>
</svg>
