<svg width="18" height="24" viewBox="0 0 18 24" fill="none" xmlns="http://www.w3.org/2000/svg">
<path d="M15.5938 3.32345H13.0726V2.94399C13.0726 2.68335 12.9693 2.43333 12.7853 2.24869C12.6014 2.06404 12.3517 1.95983 12.0911 1.95886H10.887L10.3033 1.01022C10.2013 0.844582 10.0585 0.707925 9.88858 0.613363C9.71863 0.518802 9.52722 0.469512 9.33273 0.470222H8.50449C8.10679 0.470222 7.74558 0.670897 7.53396 1.01022L6.95018 1.95521H5.74613C5.20249 1.95521 4.76465 2.3967 4.76465 2.94034V3.31615H2.2398C1.26562 3.31615 0.470215 4.10791 0.470215 5.08574V21.76C0.470215 22.7342 1.26197 23.5296 2.2398 23.5296H15.5938C16.568 23.5296 17.3634 22.7378 17.3634 21.76V5.08574C17.3634 4.1152 16.5716 3.32345 15.5938 3.32345ZM5.46519 2.94399C5.46519 2.79075 5.58924 2.6667 5.73883 2.6667H7.13991C7.26396 2.6667 7.37707 2.60467 7.4391 2.49886L8.12869 1.38603C8.20896 1.25833 8.3476 1.1817 8.4972 1.1817H9.32544C9.47503 1.1817 9.61733 1.26197 9.69395 1.38603L10.3835 2.49886C10.4492 2.60467 10.5623 2.6667 10.6827 2.6667H12.0801C12.2334 2.6667 12.3538 2.79075 12.3538 2.94399V4.03493C12.3538 4.18818 12.2297 4.30858 12.0801 4.30858H5.74248C5.58924 4.30858 5.46884 4.18453 5.46884 4.03493V2.94399H5.46519ZM16.6555 21.7673C16.6555 22.351 16.1812 22.829 15.5938 22.829H2.2398C1.65602 22.829 1.17805 22.3547 1.17805 21.7673V5.09304C1.17805 4.50925 1.65237 4.03128 2.2398 4.03128H4.761V4.03858C4.761 4.29889 4.86441 4.54853 5.04847 4.73259C5.23253 4.91666 5.48218 5.02006 5.74248 5.02006H12.0911C12.3514 5.02006 12.601 4.91666 12.7851 4.73259C12.9692 4.54853 13.0726 4.29889 13.0726 4.03858V4.03128H15.5938C16.1776 4.03128 16.6555 4.50561 16.6555 5.09304V21.7673Z" fill="white"/>
<path d="M8.63246 2.27619H9.20165C9.29551 2.27619 9.38553 2.23891 9.45191 2.17253C9.51828 2.10616 9.55557 2.01614 9.55557 1.92228C9.55557 1.82841 9.51828 1.73839 9.45191 1.67202C9.38553 1.60565 9.29551 1.56836 9.20165 1.56836H8.63246C8.43544 1.56836 8.27855 1.72525 8.27855 1.92228C8.27855 2.1193 8.43544 2.27619 8.63246 2.27619ZM5.47275 6.85522H3.38938C2.87493 6.85522 2.45898 7.27117 2.45898 7.78562V9.86899C2.45898 10.3834 2.87493 10.7994 3.38938 10.7994H5.47275C5.98721 10.7994 6.40315 10.3834 6.40315 9.86899V7.78562C6.40315 7.27117 5.98721 6.85522 5.47275 6.85522ZM5.69532 9.87264C5.69532 9.99669 5.59316 10.0952 5.47275 10.0952H3.38938C3.26533 10.0952 3.16682 9.99304 3.16682 9.87264V7.78927C3.16682 7.66522 3.26898 7.56671 3.38938 7.56671H5.47275C5.5968 7.56671 5.69532 7.66887 5.69532 7.78927V9.87264ZM15.0796 7.65792H8.1326C7.93558 7.65792 7.77868 7.81481 7.77868 8.01184C7.77868 8.20886 7.93558 8.36576 8.1326 8.36576H15.0759C15.273 8.36576 15.4299 8.20886 15.4299 8.01184C15.4305 7.96548 15.422 7.91945 15.4047 7.87645C15.3873 7.83344 15.3616 7.79432 15.329 7.76136C15.2964 7.72841 15.2575 7.70229 15.2147 7.68453C15.1719 7.66677 15.126 7.65772 15.0796 7.65792ZM8.1326 10.0003H12.1643C12.3614 10.0003 12.5183 9.84345 12.5183 9.64642C12.5183 9.4494 12.3614 9.29251 12.1643 9.29251H8.1326C7.93558 9.29251 7.77868 9.4494 7.77868 9.64642C7.77868 9.8398 7.93922 10.0003 8.1326 10.0003ZM5.47275 11.8247H3.38938C2.87493 11.8247 2.45898 12.2442 2.45898 12.7551V14.8384C2.45898 15.3529 2.87493 15.7688 3.38938 15.7688H5.47275C5.98721 15.7688 6.40315 15.3529 6.40315 14.8384V12.7551C6.40315 12.2442 5.98721 11.8247 5.47275 11.8247ZM5.69532 14.8421C5.69532 14.9661 5.59316 15.0646 5.47275 15.0646H3.38938C3.26533 15.0646 3.16682 14.9625 3.16682 14.8421V12.7587C3.16682 12.6347 3.26898 12.5361 3.38938 12.5361H5.47275C5.5968 12.5361 5.69532 12.6383 5.69532 12.7587V14.8421ZM15.0796 12.631H8.1326C7.93558 12.631 7.77868 12.7879 7.77868 12.9849C7.77868 13.1819 7.93558 13.3388 8.1326 13.3388H15.0759C15.273 13.3388 15.4299 13.1819 15.4299 12.9849C15.4299 12.7879 15.273 12.631 15.0796 12.631ZM8.1326 14.9698H12.1643C12.3614 14.9698 12.5183 14.8129 12.5183 14.6159C12.5183 14.4188 12.3614 14.2619 12.1643 14.2619H8.1326C8.03874 14.2619 7.94872 14.2992 7.88234 14.3656C7.81597 14.432 7.77868 14.522 7.77868 14.6159C7.77868 14.7097 7.81597 14.7997 7.88234 14.8661C7.94872 14.9325 8.03874 14.9698 8.1326 14.9698ZM5.47275 16.7977H3.38938C2.87493 16.7977 2.45898 17.2137 2.45898 17.7281V19.8115C2.45898 20.326 2.87493 20.7419 3.38938 20.7419H5.47275C5.98721 20.7419 6.40315 20.3223 6.40315 19.8115V17.7281C6.40315 17.2173 5.98721 16.7977 5.47275 16.7977ZM5.69532 19.8152C5.69532 19.9392 5.59316 20.0377 5.47275 20.0377H3.38938C3.26533 20.0377 3.16682 19.9356 3.16682 19.8152V17.7318C3.16682 17.6077 3.26898 17.5092 3.38938 17.5092H5.47275C5.5968 17.5092 5.69532 17.6114 5.69532 17.7318V19.8152ZM15.0796 17.6004H8.1326C7.93558 17.6004 7.77868 17.7573 7.77868 17.9544C7.77868 18.1514 7.93558 18.3083 8.1326 18.3083H15.0759C15.273 18.3083 15.4299 18.1514 15.4299 17.9544C15.4305 17.908 15.422 17.862 15.4047 17.819C15.3873 17.776 15.3616 17.7368 15.329 17.7039C15.2964 17.6709 15.2575 17.6448 15.2147 17.627C15.1719 17.6093 15.126 17.6002 15.0796 17.6004ZM12.168 19.235H8.1326C7.93558 19.235 7.77868 19.3919 7.77868 19.5889C7.77868 19.786 7.93558 19.9429 8.1326 19.9429H12.1643C12.3614 19.9429 12.5183 19.786 12.5183 19.5889C12.5189 19.5426 12.5104 19.4966 12.493 19.4535C12.4757 19.4105 12.45 19.3714 12.4174 19.3385C12.3848 19.3055 12.3459 19.2794 12.3031 19.2616C12.2603 19.2439 12.2143 19.2348 12.168 19.235Z" fill="white"/>
<path d="M4.75026 8.37644L4.33796 8.72306L4.2504 8.61725C4.19013 8.54509 4.10382 8.49962 4.01022 8.49074C3.91662 8.48186 3.8233 8.51028 3.75053 8.56982C3.60094 8.69387 3.57905 8.91644 3.7031 9.06968L4.02053 9.44914C4.08256 9.52211 4.16648 9.56589 4.26134 9.57684H4.29418C4.3781 9.57684 4.45837 9.54765 4.52404 9.49292L5.20634 8.91644C5.35593 8.78874 5.37417 8.56617 5.24647 8.41658C5.1855 8.34623 5.09936 8.30261 5.00657 8.2951C4.91378 8.2876 4.82174 8.3168 4.75026 8.37644Z" fill="white"/>
</svg>
