<svg width="22" height="24" viewBox="0 0 22 24" fill="none" xmlns="http://www.w3.org/2000/svg">
<path d="M3.58553 5.04456H13.1038C13.2262 5.04456 13.3436 4.99593 13.4302 4.90938C13.5168 4.82282 13.5654 4.70543 13.5654 4.58302C13.5654 4.46061 13.5168 4.34322 13.4302 4.25666C13.3436 4.17011 13.2262 4.12148 13.1038 4.12148H3.58553C3.30861 4.12148 2.94953 3.89902 3.25323 3.61148C3.30953 3.5561 3.43461 3.50071 3.58553 3.50071H13.1034C13.2258 3.50071 13.3432 3.45209 13.4297 3.36553C13.5163 3.27898 13.5649 3.16158 13.5649 3.03918C13.5649 2.91677 13.5163 2.79937 13.4297 2.71282C13.3432 2.62626 13.2258 2.57764 13.1034 2.57764H3.58553C2.71369 2.57764 2.3883 3.07148 2.21338 3.85471C2.23646 4.51056 2.85169 5.04456 3.58553 5.04456ZM16.2617 17.6755C16.0738 17.5994 15.8807 17.5368 15.6838 17.4881V16.4478C15.8961 16.469 16.0978 16.5124 16.2815 16.577C16.4929 16.6624 16.63 16.6001 16.7357 16.4769C16.803 16.4001 16.84 16.3015 16.84 16.1995C16.8432 16.1136 16.8183 16.029 16.7692 15.9585C16.7201 15.888 16.6493 15.8353 16.5677 15.8086C16.2835 15.7039 15.9859 15.64 15.6838 15.6189V15.3872C15.6844 15.3411 15.6757 15.2954 15.6582 15.2527C15.6408 15.2101 15.615 15.1714 15.5823 15.1389C15.5153 15.074 15.4254 15.0381 15.3321 15.0389C15.2388 15.0398 15.1496 15.0774 15.0838 15.1435C15.0221 15.2095 14.9882 15.2968 14.9892 15.3872V15.6336C14.7757 15.6635 14.5694 15.7325 14.3809 15.8372C14.1626 15.9632 13.9946 16.1252 13.8825 16.3181C13.7703 16.5112 13.712 16.7308 13.7135 16.9541C13.7135 17.2195 13.786 17.4433 13.9291 17.6201C14.0634 17.7876 14.2337 17.9187 14.4363 18.0101C14.5914 18.0803 14.7765 18.1458 14.9892 18.2072V19.2032C14.7375 19.1742 14.4916 19.1071 14.26 19.0043C14.0985 18.9313 13.9018 18.9655 13.7846 19.0943C13.7191 19.1643 13.6799 19.2548 13.6736 19.3505C13.6674 19.4462 13.6946 19.5411 13.7505 19.619C13.7969 19.6876 13.8624 19.7411 13.9388 19.7732C14.2736 19.9146 14.6276 20.0051 14.9892 20.0418V20.2892C14.9892 20.4156 15.0446 20.4955 15.0921 20.5416C15.1572 20.6016 15.2408 20.6339 15.334 20.6339C15.3804 20.635 15.4265 20.6267 15.4696 20.6095C15.5128 20.5924 15.552 20.5668 15.5851 20.5343C15.617 20.5021 15.6423 20.4638 15.6592 20.4217C15.6762 20.3796 15.6846 20.3345 15.6838 20.2892V20.0409C15.9035 20.0132 16.1038 19.9555 16.2815 19.8696C16.5086 19.7593 16.6877 19.607 16.8137 19.4183C16.9406 19.2258 17.0052 19.0093 17.0052 18.773C17.0052 18.4864 16.9309 18.2483 16.7837 18.0664C16.6448 17.895 16.4652 17.7607 16.2617 17.6755ZM16.1445 18.7389C16.1445 18.9166 16.0877 19.1215 15.6838 19.1958V18.3936C15.8269 18.4412 15.9414 18.4906 16.0249 18.5409C16.1089 18.5916 16.1445 18.6507 16.1445 18.7389ZM14.9892 16.4912V17.3044C14.8868 17.2705 14.7894 17.2228 14.6998 17.1627C14.6177 17.1036 14.5803 17.027 14.5803 16.9139C14.5785 16.8579 14.5903 16.8022 14.6147 16.7517C14.6391 16.7012 14.6755 16.6574 14.7206 16.6241C14.7917 16.5673 14.8821 16.5226 14.9892 16.4912Z" fill="white"/>
<path d="M17.4387 12.9085C17.5711 12.7017 17.65 12.4571 17.65 12.194C17.65 11.9319 17.5716 11.6886 17.44 11.4823C18.16 10.52 18.1993 9.29464 18.2007 9.24156C18.202 9.17952 18.1908 9.11785 18.1678 9.06021C18.1448 9.00257 18.1104 8.95014 18.0668 8.90602C17.9777 8.81695 17.8517 8.75325 17.7317 8.76941C17.2924 8.78926 16.8584 8.87418 16.444 9.02141C16.2748 8.64966 16.0572 8.30189 15.797 7.9871V6.2651C15.8006 6.17506 15.7816 6.08555 15.7416 6.00479C15.3972 5.3901 15.2015 4.70331 15.1702 3.99941C15.124 2.89541 15.509 2.03325 15.742 1.61787C15.7814 1.54761 15.8017 1.46828 15.8009 1.38776C15.8001 1.30724 15.7783 1.22832 15.7377 1.15882C15.697 1.08932 15.6389 1.03166 15.569 0.991557C15.4992 0.95145 15.4201 0.930291 15.3396 0.930176H3.58558C1.88342 0.930176 0.5625 2.26171 0.5625 3.81341L0.566654 17.9148C0.566654 19.5048 1.89496 20.798 3.52788 20.798H9.48404C10.3083 22.9119 13.0554 23.0697 15.3405 23.0697C18.7351 23.0697 21.6313 22.4619 21.4277 19.0853C21.2754 16.6474 19.5705 14.0605 17.4387 12.9085ZM13.9536 12.194C13.9536 11.9697 14.1359 11.7869 14.3607 11.7869H16.3203C16.425 11.7919 16.5236 11.837 16.5959 11.9128C16.6682 11.9886 16.7085 12.0893 16.7085 12.194C16.7085 12.2988 16.6682 12.3995 16.5959 12.4753C16.5236 12.5511 16.425 12.5961 16.3203 12.6011H14.3602C14.2523 12.601 14.1488 12.558 14.0725 12.4817C13.9962 12.4054 13.9537 12.3019 13.9536 12.194ZM15.9996 10.0599C16.062 10.0866 16.1295 10.0992 16.1973 10.0968C16.2651 10.0944 16.3316 10.0771 16.3919 10.046C16.6484 9.91721 16.9207 9.8227 17.2019 9.76495C17.1285 10.1065 16.9817 10.5505 16.7016 10.9262C16.5783 10.8867 16.4498 10.8657 16.3203 10.8639H14.3602C14.212 10.8639 14.0717 10.8939 13.9388 10.9386C13.6776 10.5602 13.5382 10.1102 13.4708 9.76356C13.7108 9.81433 14.0039 9.89971 14.2877 10.046C14.41 10.1079 14.5531 10.1134 14.68 10.0599C14.806 10.0059 14.9016 9.89833 14.9408 9.76633C15.0333 9.46762 15.1677 9.18355 15.34 8.92264C15.4836 9.14418 15.6405 9.43587 15.7383 9.76633C15.7776 9.89787 15.8736 10.0059 15.9996 10.0599ZM3.58558 1.85371H14.6122C14.12 3.11257 14.1201 4.51067 14.6127 5.76941H3.58558C2.44835 5.76941 1.52896 4.94094 1.48973 3.88264C1.7505 2.66602 2.22035 1.85371 3.58512 1.85371H3.58558ZM1.48973 17.9153V5.89402C1.94982 6.31001 2.52535 6.57653 3.14019 6.65833C3.28604 6.67864 3.43373 6.69248 3.58558 6.69248H3.72958V19.8754H3.52788C2.40404 19.8754 1.48973 18.9957 1.48973 17.9148V17.9153ZM4.65265 19.8754V6.69248H14.8739V7.9991C14.6179 8.31069 14.4036 8.65436 14.2365 9.02141C13.8219 8.87414 13.3878 8.78921 12.9483 8.76941C12.839 8.77725 12.7023 8.81741 12.6133 8.90556C12.5696 8.94968 12.5353 9.00211 12.5123 9.05975C12.4893 9.11739 12.4781 9.17906 12.4794 9.2411C12.4808 9.29648 12.5196 10.5629 13.2179 11.5248C13.1016 11.7219 13.0305 11.9489 13.0305 12.194C13.0305 12.4571 13.1099 12.7017 13.2423 12.9085C11.111 14.0605 9.40465 16.6469 9.25281 19.0857C9.23573 19.3626 9.23988 19.6257 9.26527 19.8749L4.65265 19.8754ZM15.3405 22.1466C12.4388 22.1466 10.0051 21.8725 10.174 19.1429C10.3153 16.8846 12.0576 14.3854 14.0777 13.5242H16.6023C18.623 14.3854 20.3653 16.8846 20.5065 19.1411C20.6667 21.8609 18.0867 22.1466 15.3405 22.1466Z" fill="white"/>
</svg>
