<svg width="467" height="458" viewBox="0 0 467 458" fill="none" xmlns="http://www.w3.org/2000/svg">
<path d="M238.13 457.45C111.7 457.45 9.75 354.94 9.75 229.06C9.75 103.35 111.62 0.680176 238.13 0.680176C298.696 0.693431 356.778 24.759 399.604 67.5857C442.431 110.412 466.497 168.494 466.51 229.06C466.51 355.58 363.91 457.45 238.13 457.45Z" fill="#D6DCE8"/>
<path d="M426.74 428.57C424.758 427.674 422.554 427.386 420.408 427.742C418.262 428.098 416.27 429.083 414.684 430.571C413.097 432.059 411.987 433.984 411.495 436.103C411.002 438.222 411.149 440.439 411.916 442.475C412.684 444.51 414.038 446.272 415.807 447.539C417.576 448.805 419.68 449.518 421.854 449.588C424.028 449.658 426.175 449.082 428.021 447.933C429.868 446.783 431.333 445.112 432.23 443.13C432.826 441.814 433.157 440.393 433.203 438.949C433.25 437.504 433.012 436.065 432.502 434.713C431.992 433.361 431.221 432.122 430.232 431.068C429.243 430.014 428.057 429.165 426.74 428.57Z" fill="#D6DCE8"/>
<path d="M448.23 412.43C446.968 411.859 445.566 411.675 444.2 411.9C442.834 412.126 441.565 412.752 440.555 413.699C439.545 414.646 438.838 415.871 438.524 417.22C438.21 418.568 438.303 419.98 438.791 421.275C439.279 422.571 440.141 423.693 441.267 424.499C442.393 425.305 443.733 425.759 445.117 425.803C446.501 425.847 447.867 425.48 449.042 424.748C450.218 424.016 451.149 422.952 451.72 421.69C452.484 419.999 452.546 418.074 451.892 416.338C451.237 414.601 449.92 413.196 448.23 412.43Z" fill="#D6DCE8"/>
<path d="M45.6295 30.0601C43.6472 29.1641 41.4439 28.8758 39.2979 29.2319C37.1519 29.5879 35.1597 30.5724 33.5731 32.0606C31.9865 33.5488 30.8769 35.474 30.3843 37.5928C29.8918 39.7117 30.0385 41.9291 30.806 43.9645C31.5735 46 32.9272 47.7621 34.6961 49.0282C36.465 50.2944 38.5695 51.0076 40.7437 51.0778C42.9179 51.148 45.0641 50.5719 46.9109 49.4224C48.7578 48.273 50.2226 46.6018 51.1197 44.62C51.7156 43.3036 52.0462 41.8827 52.0928 40.4384C52.1394 38.9941 51.901 37.5547 51.3912 36.2026C50.8813 34.8504 50.1102 33.612 49.1216 32.558C48.133 31.5041 46.9462 30.6553 45.6295 30.0601Z" fill="#D6DCE8"/>
<path d="M458.73 46.6502C457.341 46.0276 455.798 45.8303 454.297 46.0832C452.795 46.3361 451.402 47.0278 450.294 48.0712C449.185 49.1146 448.41 50.4627 448.066 51.946C447.722 53.4292 447.826 54.9809 448.363 56.4056C448.9 57.8302 449.846 59.064 451.084 59.9513C452.321 60.8387 453.793 61.3398 455.315 61.3916C456.837 61.4435 458.339 61.0436 459.634 60.2425C460.929 59.4414 461.957 58.275 462.59 56.8902C463.011 55.9647 463.246 54.9652 463.28 53.9489C463.314 52.9326 463.146 51.9196 462.788 50.9681C462.429 50.0166 461.886 49.1453 461.19 48.4043C460.493 47.6633 459.657 47.0672 458.73 46.6502Z" fill="#D6DCE8"/>
<path d="M67.1202 13.9199C65.859 13.3495 64.4569 13.1658 63.0914 13.3919C61.7258 13.6181 60.4581 14.2441 59.4483 15.1907C58.4384 16.1372 57.7317 17.3619 57.4178 18.7099C57.1038 20.058 57.1967 21.4689 57.6844 22.7643C58.1721 24.0596 59.0327 25.1813 60.1578 25.9875C61.2828 26.7938 62.6216 27.2485 64.0049 27.294C65.3883 27.3396 66.7543 26.974 67.93 26.2435C69.1056 25.513 70.0383 24.4503 70.6102 23.1898C70.9902 22.352 71.2012 21.4476 71.2315 20.5282C71.2618 19.6087 71.1106 18.6925 70.7864 17.8315C70.4623 16.9706 69.9717 16.1819 69.3426 15.5107C68.7135 14.8395 67.9584 14.299 67.1202 13.9199Z" fill="#D6DCE8"/>
<path d="M373 95.5603L407.89 326.56C408.319 329.4 408.184 332.297 407.493 335.084C406.803 337.872 405.57 340.496 403.865 342.808C402.16 345.119 400.017 347.072 397.557 348.555C395.098 350.038 392.37 351.021 389.53 351.45L382.44 352.53L341 78.2702L348.09 77.2002C350.931 76.7685 353.83 76.9013 356.62 77.5906C359.41 78.2798 362.037 79.5123 364.35 81.2174C366.664 82.9225 368.618 85.0669 370.103 87.5279C371.587 89.989 372.571 92.7185 373 95.5603Z" fill="url(#paint0_linear_1208_34883)"/>
<path d="M337.85 57.5202L385.54 373.28C386.072 376.789 385.907 380.368 385.055 383.813C384.203 387.258 382.68 390.501 380.574 393.357C378.468 396.213 375.819 398.625 372.779 400.457C369.74 402.288 366.369 403.503 362.86 404.03L128 439.49C122.279 440.357 116.444 440.087 110.828 438.696C105.212 437.305 99.9248 434.82 95.2703 431.383C90.6158 427.947 86.6849 423.626 83.7024 418.668C80.72 413.71 78.7446 408.212 77.8894 402.49L35.2796 120.39C34.4112 114.669 34.6797 108.833 36.0701 103.215C37.4605 97.598 39.9455 92.3102 43.3823 87.6546C46.8192 82.999 51.1408 79.0671 56.0994 76.084C61.058 73.101 66.5563 71.1253 72.2796 70.2702L307.1 34.8002C310.611 34.2683 314.193 34.4342 317.64 35.2888C321.087 36.1433 324.332 37.6696 327.189 39.7801C330.045 41.8906 332.457 44.5439 334.286 47.5881C336.116 50.6322 337.327 54.0074 337.85 57.5202Z" fill="url(#paint1_linear_1208_34883)"/>
<path d="M112.399 64.25L168.159 433.43L128.04 439.49C122.319 440.357 116.484 440.087 110.868 438.696C105.252 437.305 99.9648 434.82 95.3103 431.383C90.6558 427.947 86.7249 423.626 83.7425 418.668C80.76 413.71 78.7846 408.212 77.9295 402.49L35.3196 120.39C34.4512 114.669 34.7197 108.832 36.1101 103.215C37.5005 97.5978 39.9852 92.31 43.4221 87.6544C46.859 82.9988 51.1806 79.0669 56.1392 76.0839C61.0978 73.1008 66.5964 71.1251 72.3196 70.27L112.399 64.25Z" fill="url(#paint2_linear_1208_34883)"/>
<path d="M62.9995 146.8C62.5314 143.672 63.0008 140.475 64.3486 137.614C65.6963 134.753 67.8619 132.355 70.5717 130.724C73.2815 129.093 76.4141 128.301 79.5734 128.45C82.7328 128.598 85.7773 129.679 88.3225 131.557C90.8676 133.435 92.7989 136.025 93.8728 139C94.9466 141.975 95.1147 145.201 94.3557 148.272C93.5967 151.342 91.9446 154.119 89.6083 156.251C87.2721 158.383 84.3563 159.774 81.2294 160.25C79.149 160.567 77.0265 160.47 74.9836 159.965C72.9407 159.46 71.0176 158.557 69.3242 157.307C67.6308 156.058 66.2005 154.487 65.1152 152.684C64.0299 150.881 63.3109 148.881 62.9995 146.8Z" fill="url(#paint3_linear_1208_34883)"/>
<path d="M62.9998 146.79C62.7203 145.062 62.7474 143.299 63.0799 141.58C63.9726 145.141 66.0622 148.286 68.9986 150.488C71.935 152.691 75.5396 153.817 79.2076 153.677C82.8756 153.538 86.384 152.142 89.1446 149.722C91.9052 147.303 93.7503 144.008 94.3699 140.39C94.4799 140.92 94.5998 141.39 94.6798 142.01C95.3136 146.211 94.2527 150.492 91.7303 153.911C89.2079 157.33 85.4308 159.606 81.2298 160.24C77.0288 160.874 72.748 159.813 69.3292 157.291C65.9104 154.768 63.6337 150.991 62.9998 146.79Z" fill="url(#paint4_linear_1208_34883)"/>
<path d="M74.3298 221.9C73.8593 218.771 74.3268 215.573 75.6733 212.711C77.0198 209.848 79.1849 207.448 81.8947 205.816C84.6046 204.183 87.7376 203.39 90.8979 203.538C94.0582 203.685 97.1039 204.767 99.6499 206.645C102.196 208.523 104.128 211.113 105.202 214.089C106.276 217.065 106.443 220.292 105.684 223.363C104.924 226.435 103.27 229.212 100.933 231.343C98.5949 233.475 95.6777 234.866 92.5498 235.34C90.4708 235.655 88.35 235.557 86.3088 235.052C84.2676 234.547 82.3459 233.645 80.6538 232.396C78.9616 231.148 77.5321 229.579 76.447 227.778C75.3618 225.977 74.6425 223.979 74.3298 221.9Z" fill="url(#paint5_linear_1208_34883)"/>
<path d="M74.3195 221.89C74.0449 220.162 74.0718 218.399 74.3993 216.68C75.292 220.241 77.3819 223.386 80.3183 225.589C83.2547 227.791 86.859 228.917 90.527 228.778C94.195 228.638 97.7037 227.242 100.464 224.822C103.225 222.403 105.07 219.108 105.689 215.49C105.799 216.01 105.919 216.49 105.999 217.1C106.635 221.301 105.575 225.583 103.054 229.002C100.532 232.422 96.7554 234.7 92.5544 235.335C88.3533 235.97 84.072 234.911 80.6523 232.389C77.2326 229.868 74.9547 226.091 74.3195 221.89Z" fill="url(#paint6_linear_1208_34883)"/>
<path d="M85.6694 297C85.2013 293.872 85.6707 290.675 87.0185 287.814C88.3663 284.953 90.5319 282.555 93.2416 280.924C95.9514 279.293 99.084 278.501 102.243 278.649C105.403 278.798 108.447 279.879 110.992 281.757C113.538 283.635 115.469 286.225 116.543 289.2C117.617 292.175 117.785 295.401 117.026 298.471C116.267 301.542 114.615 304.318 112.279 306.45C109.942 308.582 107.026 309.974 103.899 310.45C101.819 310.766 99.6964 310.669 97.6535 310.164C95.6106 309.659 93.6875 308.756 91.9941 307.507C90.3007 306.257 88.8704 304.686 87.7851 302.883C86.6998 301.08 85.9808 299.081 85.6694 297Z" fill="url(#paint7_linear_1208_34883)"/>
<path d="M85.6596 297C85.3852 295.272 85.4123 293.509 85.7397 291.79C86.6323 295.351 88.7222 298.496 91.6586 300.698C94.595 302.901 98.1993 304.027 101.867 303.887C105.535 303.748 109.044 302.351 111.805 299.932C114.565 297.513 116.41 294.218 117.03 290.6C117.14 291.13 117.26 291.65 117.35 292.22C117.984 296.422 116.922 300.705 114.399 304.124C111.876 307.544 108.097 309.821 103.895 310.455C99.6923 311.089 95.4104 310.028 91.9906 307.504C88.5709 304.981 86.2935 301.202 85.6596 297Z" fill="url(#paint8_linear_1208_34883)"/>
<path d="M96.9999 372.09C96.5298 368.962 96.9976 365.765 98.3439 362.902C99.6903 360.04 101.855 357.641 104.564 356.008C107.273 354.376 110.406 353.583 113.566 353.73C116.725 353.877 119.771 354.957 122.317 356.834C124.863 358.711 126.795 361.301 127.87 364.276C128.945 367.251 129.114 370.478 128.356 373.549C127.597 376.619 125.946 379.397 123.609 381.529C121.273 383.662 118.357 385.054 115.23 385.53C113.15 385.847 111.028 385.75 108.986 385.246C106.944 384.741 105.021 383.839 103.328 382.591C101.635 381.342 100.204 379.772 99.1181 377.971C98.0323 376.169 97.3126 374.17 96.9999 372.09Z" fill="url(#paint9_linear_1208_34883)"/>
<path d="M96.9997 372.08C96.7302 370.351 96.7573 368.59 97.0797 366.87C97.9724 370.431 100.062 373.576 102.998 375.778C105.935 377.981 109.539 379.107 113.207 378.968C116.875 378.828 120.384 377.431 123.144 375.012C125.905 372.593 127.75 369.298 128.37 365.68C128.49 366.2 128.6 366.68 128.69 367.29C129.004 369.371 128.906 371.493 128.4 373.536C127.894 375.579 126.991 377.502 125.742 379.196C124.493 380.889 122.923 382.321 121.121 383.407C119.319 384.494 117.32 385.216 115.24 385.53C113.159 385.845 111.037 385.746 108.994 385.24C106.951 384.735 105.028 383.832 103.334 382.583C101.64 381.334 100.209 379.763 99.1222 377.961C98.0353 376.159 97.3142 374.161 96.9997 372.08Z" fill="url(#paint10_linear_1208_34883)"/>
<path d="M84.1796 139.54C84.2955 140.24 84.2711 140.956 84.1078 141.646C83.9445 142.337 83.6456 142.987 83.2284 143.561C82.8112 144.135 82.2842 144.62 81.6779 144.988C81.0716 145.356 80.3981 145.6 79.6967 145.705C78.9953 145.81 78.2799 145.775 77.5922 145.602C76.9045 145.428 76.2582 145.119 75.6908 144.694C75.1235 144.268 74.6462 143.734 74.2873 143.122C73.9283 142.51 73.6947 141.833 73.5998 141.13C73.0864 137.75 71.254 134.711 68.5043 132.679C65.7546 130.648 62.3115 129.789 58.9296 130.29L22.3097 135.82C18.9521 136.359 15.943 138.202 13.9369 140.948C11.9309 143.693 11.0901 147.12 11.5976 150.483C12.105 153.845 13.9196 156.871 16.6466 158.903C19.3737 160.934 22.7925 161.807 26.1596 161.33L41.1596 159.06L42.7597 169.65L27.7597 171.91C24.6946 172.373 21.5684 172.228 18.5595 171.483C15.5506 170.737 12.7179 169.407 10.2233 167.567C5.18512 163.851 1.82956 158.286 0.894674 152.095C-0.0402137 145.905 1.52215 139.597 5.23818 134.559C8.95421 129.521 14.5195 126.165 20.7096 125.23L57.3297 119.7C63.5207 118.774 69.8258 120.344 74.8603 124.064C79.8947 127.784 83.2467 133.351 84.1796 139.54Z" fill="url(#paint11_linear_1208_34883)"/>
<path d="M95.6796 215.68C95.8918 217.083 95.538 218.513 94.6959 219.655C93.8539 220.797 92.5926 221.558 91.1896 221.77C89.7866 221.982 88.3568 221.628 87.2147 220.786C86.0726 219.944 85.3119 218.683 85.0998 217.28C84.5841 213.905 82.7515 210.872 80.0036 208.845C77.2556 206.819 73.8163 205.965 70.4396 206.47L33.8097 212C30.4521 212.539 27.443 214.381 25.4369 217.127C23.4309 219.873 22.5901 223.3 23.0976 226.662C23.605 230.025 25.4196 233.051 28.1466 235.082C30.8737 237.114 34.2925 237.986 37.6596 237.51L52.6596 235.24L54.2597 245.83L39.2597 248.09C33.0695 249.025 26.7615 247.462 21.7233 243.746C16.6851 240.03 13.3296 234.465 12.3947 228.275C11.4598 222.085 13.0221 215.777 16.7382 210.738C20.4542 205.7 26.0195 202.345 32.2096 201.41L68.8397 195.88C75.0235 194.953 81.3224 196.518 86.3541 200.23C91.3859 203.942 94.7396 209.498 95.6796 215.68Z" fill="url(#paint12_linear_1208_34883)"/>
<path d="M107.189 291.86C107.337 293.234 106.949 294.612 106.105 295.706C105.261 296.801 104.027 297.527 102.661 297.733C101.295 297.94 99.9014 297.611 98.772 296.814C97.6426 296.018 96.8643 294.817 96.5996 293.46C96.0865 290.084 94.2545 287.049 91.5059 285.022C88.7573 282.996 85.3166 282.143 81.9395 282.65L45.3196 288.18C43.6301 288.413 42.0034 288.978 40.5342 289.844C39.065 290.71 37.7826 291.86 36.761 293.225C35.7395 294.591 34.9993 296.146 34.5835 297.8C34.1677 299.454 34.0844 301.174 34.3387 302.86C34.5929 304.547 35.1795 306.166 36.0645 307.624C36.9495 309.082 38.1152 310.349 39.4939 311.353C40.8727 312.357 42.437 313.077 44.0962 313.471C45.7554 313.865 47.4765 313.926 49.1595 313.65L64.1595 311.39L65.7596 321.97L50.7596 324.24C44.6299 325.047 38.4285 323.415 33.49 319.695C28.5515 315.976 25.2705 310.466 24.3531 304.352C23.4356 298.238 24.9551 292.009 28.5845 287.004C32.2139 281.999 37.6631 278.618 43.7596 277.59L80.3794 272.06C86.5594 271.137 92.8533 272.703 97.8797 276.415C102.906 280.127 106.254 285.682 107.189 291.86Z" fill="url(#paint13_linear_1208_34883)"/>
<path d="M118.69 368C118.828 368.71 118.822 369.441 118.67 370.148C118.519 370.855 118.226 371.524 117.81 372.115C117.393 372.706 116.861 373.207 116.246 373.587C115.63 373.967 114.945 374.219 114.23 374.327C113.515 374.435 112.785 374.397 112.085 374.216C111.385 374.034 110.729 373.713 110.156 373.272C109.583 372.83 109.106 372.277 108.752 371.646C108.399 371.015 108.177 370.319 108.1 369.6C107.584 366.225 105.752 363.192 103.004 361.166C100.256 359.14 96.8163 358.285 93.4396 358.79L56.8197 364.32C53.4621 364.859 50.453 366.702 48.4469 369.447C46.4409 372.193 45.6001 375.62 46.1076 378.982C46.615 382.345 48.4296 385.371 51.1566 387.403C53.8837 389.434 57.3025 390.306 60.6696 389.83L75.6696 387.57L77.2597 398.15L62.2597 400.42C56.0695 401.355 49.7615 399.793 44.7233 396.077C39.6851 392.361 36.3296 386.795 35.3947 380.605C34.4598 374.415 36.0221 368.107 39.7382 363.069C43.4542 358.031 49.0195 354.675 55.2096 353.74L91.8297 348.2C98.0162 347.271 104.319 348.834 109.354 352.546C114.39 356.258 117.747 361.816 118.69 368Z" fill="url(#paint14_linear_1208_34883)"/>
<path d="M308.87 178.29C310.867 191.585 308.878 205.174 303.154 217.34C297.43 229.505 288.228 239.701 276.712 246.638C265.195 253.575 251.881 256.943 238.451 256.316C225.021 255.688 212.078 251.094 201.258 243.113C190.439 235.132 182.228 224.123 177.663 211.477C173.099 198.831 172.385 185.115 175.613 172.064C178.841 159.013 185.865 147.211 195.798 138.15C205.732 129.09 218.127 123.177 231.42 121.16C240.261 119.787 249.287 120.179 257.976 122.312C266.666 124.445 274.847 128.278 282.047 133.59C289.247 138.901 295.325 145.585 299.928 153.257C304.532 160.929 307.571 169.437 308.87 178.29Z" fill="url(#paint15_linear_1208_34883)"/>
<path d="M268.459 177.34C269.29 182.858 268.467 188.499 266.092 193.549C263.718 198.599 259.9 202.832 255.12 205.712C250.34 208.593 244.814 209.991 239.24 209.731C233.665 209.472 228.293 207.565 223.802 204.252C219.312 200.94 215.904 196.37 214.009 191.121C212.115 185.872 211.82 180.179 213.161 174.762C214.501 169.345 217.418 164.447 221.542 160.688C225.666 156.928 230.812 154.475 236.33 153.64C239.998 153.067 243.743 153.227 247.349 154.111C250.955 154.995 254.35 156.584 257.338 158.788C260.326 160.992 262.847 163.766 264.756 166.951C266.665 170.135 267.924 173.666 268.459 177.34Z" fill="url(#paint16_linear_1208_34883)"/>
<path d="M301.35 221C296.313 230.216 289.214 238.144 280.607 244.163C271.999 250.182 262.117 254.13 251.732 255.698C241.347 257.267 230.739 256.413 220.739 253.204C210.738 249.995 201.614 244.518 194.08 237.2C199.097 227.961 206.187 220.012 214.793 213.976C223.4 207.939 233.29 203.981 243.684 202.411C254.079 200.841 264.696 201.703 274.702 204.928C284.708 208.154 293.829 213.655 301.35 221Z" fill="url(#paint17_linear_1208_34883)"/>
<path d="M332.42 288.38C332.681 290.11 332.244 291.874 331.205 293.282C330.166 294.69 328.61 295.628 326.88 295.89L191.88 316.28C191.022 316.411 190.147 316.371 189.305 316.163C188.463 315.955 187.67 315.583 186.971 315.069C186.273 314.554 185.683 313.907 185.235 313.164C184.787 312.422 184.489 311.598 184.36 310.74C184.099 309.009 184.536 307.246 185.575 305.838C186.614 304.43 188.169 303.491 189.9 303.23L324.9 282.83C325.758 282.699 326.634 282.74 327.477 282.948C328.319 283.156 329.113 283.529 329.811 284.044C330.51 284.56 331.1 285.208 331.548 285.952C331.995 286.696 332.292 287.521 332.42 288.38Z" fill="#AAB2C5"/>
<path d="M336.879 317.87C337.14 319.602 336.704 321.366 335.665 322.776C334.627 324.186 333.071 325.126 331.34 325.39L196.34 345.78C194.609 346.041 192.846 345.604 191.437 344.565C190.029 343.526 189.091 341.971 188.83 340.24C188.698 339.383 188.736 338.508 188.944 337.666C189.151 336.824 189.523 336.031 190.038 335.333C190.553 334.635 191.2 334.046 191.944 333.599C192.687 333.153 193.512 332.857 194.37 332.73L329.37 312.33C331.1 312.072 332.862 312.51 334.269 313.549C335.677 314.587 336.615 316.141 336.879 317.87Z" fill="#AAB2C5"/>
<path d="M432.469 81.07C431.613 91.4542 428.289 101.484 422.776 110.325C417.262 119.166 409.717 126.563 400.768 131.9C391.82 137.238 381.726 140.362 371.327 141.012C360.928 141.663 350.523 139.821 340.979 135.64C317.889 142.89 318.509 143 316.979 143C316.227 142.999 315.484 142.832 314.804 142.51C314.124 142.189 313.523 141.721 313.045 141.139C312.567 140.558 312.224 139.879 312.04 139.149C311.855 138.42 311.835 137.658 311.979 136.92L315.879 116.3C309.262 107.932 304.792 98.0725 302.856 87.5812C300.92 77.0899 301.579 66.2846 304.773 56.1059C307.968 45.9271 313.602 36.6836 321.186 29.1802C328.77 21.6768 338.073 16.1409 348.285 13.0546C358.497 9.96826 369.309 9.42501 379.779 11.4722C390.249 13.5194 400.06 18.0949 408.358 24.8004C416.655 31.5059 423.188 40.1381 427.387 49.9453C431.586 59.7526 433.324 70.4375 432.449 81.07H432.469Z" fill="url(#paint18_linear_1208_34883)"/>
<path d="M322.58 74.5199C322.584 83.3528 325.207 91.9862 330.118 99.3283C335.028 106.67 342.006 112.391 350.168 115.768C358.33 119.145 367.31 120.025 375.972 118.298C384.635 116.571 392.591 112.314 398.834 106.065C405.077 99.8165 409.326 91.857 411.046 83.193C412.765 74.529 411.877 65.5498 408.493 57.3908C405.109 49.2317 399.382 42.2594 392.035 37.3554C384.689 32.4513 376.053 29.8359 367.22 29.8398C361.354 29.8372 355.545 30.9914 350.125 33.2363C344.705 35.4813 339.781 38.7729 335.635 42.9229C331.489 47.0728 328.201 51.9997 325.961 57.4215C323.721 62.8433 322.572 68.6536 322.58 74.5199Z" fill="#F9FAFD"/>
<path d="M376.47 55.2101L373.22 75.9201C372.997 77.3501 372.27 78.6529 371.169 79.5923C370.068 80.5316 368.667 81.0454 367.22 81.0401C365.773 81.0454 364.372 80.5316 363.271 79.5923C362.17 78.6529 361.442 77.3501 361.22 75.9201L357.97 55.2101C357.823 54.3427 357.869 53.4538 358.104 52.6061C358.339 51.7584 358.758 50.9727 359.33 50.3048C359.903 49.6369 360.615 49.103 361.417 48.7411C362.219 48.3791 363.09 48.1977 363.97 48.2101H370.47C371.349 48.1977 372.221 48.3791 373.023 48.7411C373.824 49.103 374.537 49.6369 375.109 50.3048C375.682 50.9727 376.1 51.7584 376.335 52.6061C376.571 53.4538 376.616 54.3427 376.47 55.2101Z" fill="url(#paint19_linear_1208_34883)"/>
<path d="M367.24 100.78C366.21 100.783 365.195 100.532 364.285 100.049C363.375 99.5662 362.597 98.8666 362.022 98.012C361.447 97.1574 361.091 96.1742 360.986 95.1493C360.881 94.1245 361.03 93.0894 361.42 92.1359C361.81 91.1824 362.429 90.3398 363.222 89.6824C364.016 89.0251 364.959 88.5733 365.968 88.3671C366.977 88.1609 368.022 88.2066 369.01 88.5002C369.997 88.7937 370.897 89.3261 371.63 90.0502C372.518 90.9211 373.127 92.0369 373.378 93.2553C373.63 94.4736 373.512 95.7393 373.041 96.8907C372.57 98.042 371.767 99.0269 370.734 99.7196C369.7 100.412 368.484 100.782 367.24 100.78Z" fill="url(#paint20_linear_1208_34883)"/>
<path d="M448.84 232C448.837 232.487 448.643 232.954 448.298 233.298C447.954 233.643 447.487 233.837 447 233.84C443.41 233.842 439.967 235.27 437.429 237.809C434.89 240.347 433.463 243.79 433.46 247.38C433.479 247.632 433.445 247.886 433.361 248.125C433.278 248.363 433.145 248.582 432.973 248.768C432.801 248.953 432.592 249.101 432.36 249.202C432.128 249.303 431.878 249.355 431.625 249.355C431.372 249.355 431.122 249.303 430.89 249.202C430.658 249.101 430.449 248.953 430.277 248.768C430.105 248.582 429.972 248.363 429.889 248.125C429.805 247.886 429.771 247.632 429.79 247.38C429.785 243.79 428.356 240.35 425.818 237.812C423.28 235.273 419.839 233.845 416.25 233.84C415.998 233.858 415.744 233.825 415.505 233.741C415.267 233.657 415.048 233.525 414.862 233.353C414.677 233.181 414.529 232.972 414.428 232.74C414.327 232.508 414.274 232.258 414.274 232.005C414.274 231.752 414.327 231.501 414.428 231.27C414.529 231.038 414.677 230.829 414.862 230.657C415.048 230.485 415.267 230.352 415.505 230.269C415.744 230.185 415.998 230.151 416.25 230.17C419.839 230.165 423.28 228.736 425.818 226.198C428.356 223.66 429.785 220.219 429.79 216.63C429.771 216.378 429.805 216.124 429.889 215.885C429.972 215.646 430.105 215.427 430.277 215.242C430.449 215.057 430.658 214.909 430.89 214.808C431.122 214.706 431.372 214.654 431.625 214.654C431.878 214.654 432.128 214.706 432.36 214.808C432.592 214.909 432.801 215.057 432.973 215.242C433.145 215.427 433.278 215.646 433.361 215.885C433.445 216.124 433.479 216.378 433.46 216.63C433.463 220.22 434.89 223.663 437.429 226.201C439.967 228.74 443.41 230.167 447 230.17C447.485 230.173 447.95 230.366 448.295 230.708C448.639 231.05 448.835 231.514 448.84 232Z" fill="#F1F3F9"/>
<path d="M200.77 26.3102C200.77 26.5754 200.664 26.8297 200.477 27.0172C200.289 27.2047 200.035 27.3102 199.77 27.3102C197.798 27.3102 195.907 28.0926 194.512 29.4857C193.117 30.8788 192.332 32.7686 192.33 34.7401C192.33 35.0053 192.224 35.2597 192.037 35.4473C191.849 35.6348 191.595 35.7401 191.33 35.7401C191.064 35.7401 190.81 35.6348 190.622 35.4473C190.435 35.2597 190.33 35.0053 190.33 34.7401C190.33 32.7696 189.547 30.8797 188.153 29.4863C186.76 28.0929 184.87 27.3102 182.899 27.3102C182.634 27.3102 182.38 27.2047 182.192 27.0172C182.005 26.8297 181.899 26.5754 181.899 26.3102C181.899 26.045 182.005 25.7906 182.192 25.603C182.38 25.4155 182.634 25.3102 182.899 25.3102C184.871 25.3075 186.761 24.5224 188.154 23.1274C189.547 21.7325 190.33 19.8416 190.33 17.8701C190.33 17.6049 190.435 17.3505 190.622 17.163C190.81 16.9754 191.064 16.8701 191.33 16.8701C191.595 16.8701 191.849 16.9754 192.037 17.163C192.224 17.3505 192.33 17.6049 192.33 17.8701C192.33 19.8433 193.113 21.7357 194.509 23.131C195.904 24.5263 197.796 25.3102 199.77 25.3102C200.035 25.3102 200.289 25.4155 200.477 25.603C200.664 25.7906 200.77 26.045 200.77 26.3102Z" fill="#F1F3F9"/>
<path d="M264.5 438.31C264.5 438.575 264.395 438.83 264.207 439.017C264.019 439.205 263.765 439.31 263.5 439.31C261.528 439.313 259.637 440.097 258.242 441.492C256.847 442.887 256.063 444.778 256.06 446.75C256.06 447.015 255.955 447.27 255.767 447.457C255.58 447.645 255.325 447.75 255.06 447.75C254.795 447.75 254.54 447.645 254.353 447.457C254.165 447.27 254.06 447.015 254.06 446.75C254.06 444.779 253.278 442.888 251.885 441.493C250.491 440.098 248.601 439.313 246.63 439.31C246.365 439.31 246.11 439.205 245.923 439.017C245.735 438.83 245.63 438.575 245.63 438.31C245.63 438.045 245.735 437.791 245.923 437.603C246.11 437.415 246.365 437.31 246.63 437.31C248.601 437.308 250.491 436.522 251.885 435.127C253.278 433.732 254.06 431.842 254.06 429.87C254.06 429.605 254.165 429.351 254.353 429.163C254.54 428.975 254.795 428.87 255.06 428.87C255.325 428.87 255.58 428.975 255.767 429.163C255.955 429.351 256.06 429.605 256.06 429.87C256.063 431.843 256.847 433.733 258.242 435.128C259.637 436.523 261.528 437.308 263.5 437.31C263.765 437.31 264.019 437.415 264.207 437.603C264.395 437.791 264.5 438.045 264.5 438.31Z" fill="#F1F3F9"/>
<defs>
<linearGradient id="paint0_linear_1208_34883" x1="361.775" y1="215.15" x2="390.509" y2="210.81" gradientUnits="userSpaceOnUse">
<stop stop-color="#D6DCE8"/>
<stop offset="1" stop-color="white"/>
</linearGradient>
<linearGradient id="paint1_linear_1208_34883" x1="56.7068" y1="261.243" x2="361.786" y2="215.159" gradientUnits="userSpaceOnUse">
<stop stop-color="#D6DCE8"/>
<stop offset="1" stop-color="white"/>
</linearGradient>
<linearGradient id="paint2_linear_1208_34883" x1="56.7068" y1="261.243" x2="140.378" y2="248.604" gradientUnits="userSpaceOnUse">
<stop stop-color="#AAB2C5"/>
<stop offset="1" stop-color="#D6DCE8"/>
</linearGradient>
<linearGradient id="paint3_linear_1208_34883" x1="93.8012" y1="141.924" x2="62.1306" y2="146.708" gradientUnits="userSpaceOnUse">
<stop stop-color="#D6DCE8"/>
<stop offset="1" stop-color="white"/>
</linearGradient>
<linearGradient id="paint4_linear_1208_34883" x1="70.0499" y1="159.63" x2="75.6881" y2="149.352" gradientUnits="userSpaceOnUse">
<stop stop-color="#AAB2C5"/>
<stop offset="1" stop-color="#D6DCE8"/>
</linearGradient>
<linearGradient id="paint5_linear_1208_34883" x1="105.146" y1="217.021" x2="73.475" y2="221.805" gradientUnits="userSpaceOnUse">
<stop stop-color="#D6DCE8"/>
<stop offset="1" stop-color="white"/>
</linearGradient>
<linearGradient id="paint6_linear_1208_34883" x1="81.3921" y1="234.718" x2="87.0302" y2="224.441" gradientUnits="userSpaceOnUse">
<stop stop-color="#AAB2C5"/>
<stop offset="1" stop-color="#D6DCE8"/>
</linearGradient>
<linearGradient id="paint7_linear_1208_34883" x1="116.488" y1="292.11" x2="84.8172" y2="296.894" gradientUnits="userSpaceOnUse">
<stop stop-color="#D6DCE8"/>
<stop offset="1" stop-color="white"/>
</linearGradient>
<linearGradient id="paint8_linear_1208_34883" x1="92.7364" y1="309.816" x2="98.3746" y2="299.539" gradientUnits="userSpaceOnUse">
<stop stop-color="#AAB2C5"/>
<stop offset="1" stop-color="#D6DCE8"/>
</linearGradient>
<linearGradient id="paint9_linear_1208_34883" x1="127.842" y1="367.206" x2="96.1718" y2="371.99" gradientUnits="userSpaceOnUse">
<stop stop-color="#D6DCE8"/>
<stop offset="1" stop-color="white"/>
</linearGradient>
<linearGradient id="paint10_linear_1208_34883" x1="104.089" y1="384.903" x2="109.719" y2="374.637" gradientUnits="userSpaceOnUse">
<stop stop-color="#AAB2C5"/>
<stop offset="1" stop-color="#D6DCE8"/>
</linearGradient>
<linearGradient id="paint11_linear_1208_34883" x1="0.995344" y1="151.868" x2="84.2607" y2="139.29" gradientUnits="userSpaceOnUse">
<stop stop-color="#989FB0"/>
<stop offset="1" stop-color="#AAB2C5"/>
</linearGradient>
<linearGradient id="paint12_linear_1208_34883" x1="12.5037" y1="228.053" x2="95.7789" y2="215.473" gradientUnits="userSpaceOnUse">
<stop stop-color="#989FB0"/>
<stop offset="1" stop-color="#AAB2C5"/>
</linearGradient>
<linearGradient id="paint13_linear_1208_34883" x1="24.0074" y1="304.209" x2="107.283" y2="291.63" gradientUnits="userSpaceOnUse">
<stop stop-color="#989FB0"/>
<stop offset="1" stop-color="#AAB2C5"/>
</linearGradient>
<linearGradient id="paint14_linear_1208_34883" x1="35.523" y1="380.374" x2="118.788" y2="367.796" gradientUnits="userSpaceOnUse">
<stop stop-color="#989FB0"/>
<stop offset="1" stop-color="#AAB2C5"/>
</linearGradient>
<linearGradient id="paint15_linear_1208_34883" x1="174.403" y1="198.348" x2="308.947" y2="178.024" gradientUnits="userSpaceOnUse">
<stop stop-color="#989FB0"/>
<stop offset="1" stop-color="#AAB2C5"/>
</linearGradient>
<linearGradient id="paint16_linear_1208_34883" x1="212.727" y1="185.52" x2="268.543" y2="177.088" gradientUnits="userSpaceOnUse">
<stop stop-color="#D6DCE8"/>
<stop offset="1" stop-color="white"/>
</linearGradient>
<linearGradient id="paint17_linear_1208_34883" x1="194.166" y1="236.919" x2="301.429" y2="220.716" gradientUnits="userSpaceOnUse">
<stop stop-color="#D6DCE8"/>
<stop offset="1" stop-color="white"/>
</linearGradient>
<linearGradient id="paint18_linear_1208_34883" x1="301.789" y1="76.63" x2="432.689" y2="76.63" gradientUnits="userSpaceOnUse">
<stop stop-color="#989FB0"/>
<stop offset="1" stop-color="#AAB2C5"/>
</linearGradient>
<linearGradient id="paint19_linear_1208_34883" x1="357.94" y1="64.6301" x2="376.55" y2="64.6301" gradientUnits="userSpaceOnUse">
<stop stop-color="#989FB0"/>
<stop offset="1" stop-color="#AAB2C5"/>
</linearGradient>
<linearGradient id="paint20_linear_1208_34883" x1="361.02" y1="94.5102" x2="373.47" y2="94.5102" gradientUnits="userSpaceOnUse">
<stop stop-color="#989FB0"/>
<stop offset="1" stop-color="#AAB2C5"/>
</linearGradient>
</defs>
</svg>
