<svg width="40" height="40" viewBox="0 0 40 40" fill="none" xmlns="http://www.w3.org/2000/svg">
<rect width="40" height="40" rx="20" fill="#ECFBFD"/>
<path d="M20.2048 19.4545C22.7465 19.4545 24.807 17.394 24.807 14.8522C24.807 12.3105 22.7465 10.25 20.2048 10.25C17.663 10.25 15.6025 12.3105 15.6025 14.8522C15.6025 17.394 17.663 19.4545 20.2048 19.4545Z" fill="#11508E"/>
<path d="M21.9163 26.5611L20.2042 21.4434L18.4922 26.5611V26.5703L20.2042 28.2823L21.9163 26.5703V26.5611Z" fill="#11508E"/>
<path d="M22.0454 20.375H21.7877L23.8219 26.4684C23.8882 26.6374 23.9044 26.8219 23.8685 26.9999C23.8326 27.1778 23.7461 27.3416 23.6194 27.4717L20.5911 30.4999H28.4885C28.7324 30.4992 28.9661 30.402 29.1386 30.2295C29.311 30.0571 29.4082 29.8234 29.409 29.5795V27.7386C29.4065 25.7864 28.63 23.9149 27.2495 22.5344C25.8691 21.154 23.9976 20.3774 22.0454 20.375ZM16.7896 27.4717C16.6629 27.3416 16.5764 27.1778 16.5405 26.9999C16.5046 26.8219 16.5208 26.6374 16.5871 26.4684L18.6213 20.375H18.3636C16.4114 20.3774 14.5398 21.154 13.1594 22.5344C11.779 23.9149 11.0024 25.7864 11 27.7386V29.5795C11.0007 29.8234 11.0979 30.0571 11.2704 30.2295C11.4429 30.402 11.6766 30.4992 11.9204 30.4999H19.8271C19.8271 30.4999 19.238 29.9201 16.7896 27.4717Z" fill="#11508E"/>
</svg>
