<svg width="40" height="40" viewBox="0 0 40 40" fill="none" xmlns="http://www.w3.org/2000/svg">
<rect width="40" height="40" rx="20" fill="#ECFBFD"/>
<path d="M19.7418 10.25C18.3569 10.2503 17.0287 10.8002 16.0489 11.7789C15.069 12.7576 14.5176 14.0852 14.5157 15.4701C14.5157 15.6315 14.5253 15.7918 14.542 15.952C14.7298 15.7786 14.9451 15.6375 15.1878 15.5466C15.226 15.3278 15.3398 15.1293 15.5094 14.9859C15.6791 14.8425 15.8937 14.7633 16.1158 14.7621H16.7772C17.0491 14.7612 17.3098 14.6538 17.5034 14.4628C17.697 14.2719 17.8081 14.0127 17.8128 13.7408C17.8121 13.4928 17.9086 13.2543 18.0817 13.0766C18.2547 12.8989 18.4905 12.796 18.7384 12.7901C18.978 12.7845 19.2109 12.869 19.3912 13.0268C19.5714 13.1847 19.6859 13.4045 19.7119 13.6427C19.8207 14.2694 20.3816 14.7621 21.0585 14.7621H23.3641C23.8497 14.7633 24.2383 15.128 24.2969 15.549C24.5385 15.6387 24.7537 15.7786 24.9415 15.9496C24.9573 15.7906 24.9653 15.631 24.9654 15.4713C24.9638 14.0868 24.4131 12.7595 23.434 11.7806C22.4549 10.8017 21.1275 10.2513 19.743 10.25H19.7418ZM18.7707 13.4239H18.7396C18.661 13.4301 18.5876 13.4654 18.5336 13.5229C18.4797 13.5804 18.4491 13.656 18.4478 13.7348C18.4456 14.1763 18.2686 14.599 17.9555 14.9103C17.6424 15.2216 17.2187 15.3962 16.7772 15.3959H16.1194C16.0358 15.3962 15.9557 15.4296 15.8965 15.4887C15.8374 15.5479 15.804 15.628 15.8037 15.7116V16.0584C15.0623 16.0955 14.4858 16.7461 14.4858 17.5174C14.4858 18.3103 15.0957 18.9812 15.8719 18.9812C15.9221 18.9812 15.9723 18.9716 16.0226 18.9656C16.2908 19.7381 16.7932 20.4078 17.4598 20.8815C18.1264 21.3552 18.924 21.6093 19.7418 21.6086C20.5595 21.6091 21.3571 21.3549 22.0236 20.8813C22.6902 20.4076 23.1926 19.738 23.461 18.9656C23.5112 18.9716 23.5614 18.9812 23.6117 18.9812C24.3866 18.9812 24.9965 18.3115 24.9965 17.5162C24.9965 16.7461 24.4213 16.0967 23.6798 16.0572V15.7104C23.6792 15.627 23.6457 15.5472 23.5866 15.4883C23.5275 15.4294 23.4476 15.3962 23.3641 15.3959H21.0585C20.0659 15.3959 19.2287 14.6688 19.0781 13.6906C19.0663 13.6171 19.029 13.5501 18.9728 13.5014C18.9166 13.4526 18.8451 13.4252 18.7707 13.4239ZM15.8037 16.6899V17.6801C15.8037 17.9073 15.8276 18.1297 15.8635 18.3474C15.4605 18.3426 15.1197 17.9886 15.1197 17.5162C15.1197 17.0678 15.427 16.7257 15.8037 16.6899ZM23.6798 16.6899C24.0565 16.7281 24.3639 17.0678 24.3639 17.5162C24.3639 17.9886 24.0231 18.3438 23.6188 18.3474C23.6581 18.1271 23.6785 17.9038 23.6798 17.6801V16.6899ZM21.5583 21.8621C20.9853 22.112 20.3669 22.241 19.7418 22.241C19.1166 22.241 18.4982 22.112 17.9252 21.8621L19.7418 23.6774L21.5583 21.8621ZM16.9876 21.9566C16.9062 21.9588 16.8287 21.9922 16.7712 22.0498L15.5908 23.2266C15.5321 23.2859 15.4991 23.3661 15.4991 23.4496C15.4991 23.5332 15.5321 23.6133 15.5908 23.6727L18.3414 26.4196C18.4634 26.5416 18.6631 26.5416 18.7863 26.4196L19.7418 25.4665L20.6949 26.4196C20.7243 26.4491 20.7593 26.4725 20.7978 26.4884C20.8362 26.5044 20.8775 26.5126 20.9191 26.5126C20.9608 26.5126 21.002 26.5044 21.0405 26.4884C21.079 26.4725 21.1139 26.4491 21.1434 26.4196L23.8915 23.6727C23.9503 23.6133 23.9833 23.5332 23.9833 23.4496C23.9833 23.3661 23.9503 23.2859 23.8915 23.2266L22.7124 22.0498C22.6532 21.9908 22.573 21.9576 22.4893 21.9576C22.4057 21.9576 22.3255 21.9908 22.2663 22.0498L19.7418 24.572L17.2173 22.0486C17.1871 22.0187 17.1512 21.9951 17.1118 21.9793C17.0724 21.9635 17.0301 21.9557 16.9876 21.9566ZM15.0383 22.9085C12.3069 23.4239 10.25 25.8587 10.25 28.7923V30.1843C10.25 30.3589 10.3911 30.5 10.5669 30.5H14.0481V28.6332C14.0481 28.1716 14.6784 28.1716 14.6784 28.6332V30.5H24.804V28.6332C24.804 28.2111 25.4378 28.2111 25.4378 28.6332V30.5H28.9178C28.9594 30.5002 29.0006 30.4921 29.039 30.4763C29.0775 30.4605 29.1124 30.4373 29.1419 30.408C29.1713 30.3786 29.1947 30.3438 29.2106 30.3054C29.2265 30.267 29.2347 30.2258 29.2347 30.1843V28.7923C29.2347 25.8587 27.1778 23.4239 24.4452 22.9085C24.57 23.0913 24.6278 23.3116 24.6089 23.5322C24.5899 23.7527 24.4953 23.9599 24.3412 24.1187L21.593 26.8657C21.4136 27.0426 21.1717 27.1417 20.9197 27.1417C20.6678 27.1417 20.4259 27.0426 20.2464 26.8657L19.7418 26.361L19.2335 26.8681C19.0545 27.0421 18.8147 27.1394 18.565 27.1394C18.3154 27.1394 18.0755 27.0421 17.8965 26.8681L17.8941 26.8669L15.1436 24.1199C14.9891 23.961 14.8944 23.7524 14.8754 23.5316C14.8564 23.3108 14.9144 23.0902 15.0395 22.9073L15.0383 22.9085Z" fill="#11508E"/>
</svg>
