<svg width="40" height="40" viewBox="0 0 40 40" fill="none" xmlns="http://www.w3.org/2000/svg">
<rect width="40" height="40" rx="20" fill="#ECFBFD"/>
<path d="M24.7384 25.7205L21.1692 28.1273L21.1511 28.1409C21.1461 28.1459 21.1371 28.1459 21.1325 28.1504C20.9071 28.3017 20.6414 28.3817 20.37 28.38H17.0485C16.9268 28.3796 16.8102 28.3311 16.7242 28.2451C16.6382 28.1591 16.5897 28.0425 16.5893 27.9208C16.5893 27.6681 16.7958 27.4617 17.0485 27.4617H20.37C20.4619 27.4617 20.5488 27.4386 20.6177 27.3878H20.6222L20.6313 27.3788C20.6864 27.3398 20.7323 27.2892 20.7656 27.2305C20.799 27.1718 20.819 27.1065 20.8242 27.0392C20.8255 26.9237 20.7829 26.812 20.7051 26.7267C20.6538 26.6736 20.5925 26.6312 20.5247 26.6019C20.4569 26.5727 20.384 26.5572 20.3102 26.5564H17.8848C17.0064 26.556 16.164 26.2076 15.5419 25.5874C15.0911 25.1363 14.4802 24.8819 13.8424 24.8796H12.7534V28.7753H13.4933C14.1855 28.7745 14.8604 28.9915 15.4224 29.3957L16.5753 30.2221C17.1956 30.6664 17.9454 30.8934 18.708 30.8677C19.4707 30.842 20.2034 30.565 20.7925 30.0799L26.0521 25.7481C25.8637 25.6064 25.6355 25.5274 25.3997 25.5225C25.164 25.5175 24.9326 25.5868 24.7384 25.7205ZM11.3754 24.0206H9.19775V29.7308H11.3754C11.6281 29.7308 11.8346 29.5238 11.8346 29.2712V24.4802C11.8346 24.2275 11.6281 24.0206 11.3754 24.0206ZM10.3692 28.807C10.2469 28.8075 10.1293 28.7594 10.0424 28.6733C9.95548 28.5872 9.90625 28.4702 9.90553 28.3478C9.90553 28.0952 10.112 27.8887 10.3647 27.8887H10.3692C10.6219 27.8887 10.8288 28.0952 10.8288 28.3478C10.8288 28.6005 10.6219 28.807 10.3692 28.807ZM19.6287 16.6621C17.5135 16.6621 15.7923 18.3833 15.7923 20.4985C15.7923 22.6141 17.5131 24.3353 19.6292 24.3353C21.7443 24.3353 23.4655 22.6146 23.4655 20.4985C23.4655 18.3833 21.7443 16.6621 19.6287 16.6621ZM20.0883 22.6236V22.687C20.0883 22.8089 20.0399 22.9257 19.9538 23.0119C19.8676 23.098 19.7508 23.1464 19.6289 23.1464C19.5071 23.1464 19.3902 23.098 19.3041 23.0119C19.2179 22.9257 19.1695 22.8089 19.1695 22.687V22.6272C18.9759 22.5569 18.8014 22.4423 18.6599 22.2926C18.5184 22.1429 18.4138 21.9623 18.3544 21.7651C18.3358 21.7071 18.3288 21.6459 18.334 21.5852C18.3392 21.5245 18.3564 21.4655 18.3847 21.4115C18.4129 21.3575 18.4516 21.3097 18.4985 21.2708C18.5454 21.2319 18.5996 21.2028 18.6579 21.185C18.7162 21.1673 18.7774 21.1614 18.838 21.1675C18.8987 21.1737 18.9574 21.1919 19.011 21.221C19.0645 21.2501 19.1117 21.2896 19.1498 21.3371C19.1879 21.3847 19.2161 21.4393 19.2329 21.4979C19.2873 21.6736 19.4458 21.7918 19.6292 21.7918C19.7364 21.7868 19.8376 21.7406 19.9117 21.663C19.9859 21.5853 20.0272 21.4821 20.0272 21.3747C20.0272 21.2673 19.9859 21.1641 19.9117 21.0864C19.8376 21.0088 19.7364 20.9627 19.6292 20.9577C19.2773 20.9577 18.9395 20.8195 18.6886 20.5728C18.4374 20.3209 18.2959 19.9798 18.2951 19.6241C18.2957 19.3513 18.3798 19.0852 18.5361 18.8616C18.6925 18.638 18.9135 18.4676 19.1695 18.3734V18.3104C19.1695 18.1886 19.2179 18.0717 19.3041 17.9856C19.3902 17.8994 19.5071 17.851 19.6289 17.851C19.7508 17.851 19.8676 17.8994 19.9538 17.9856C20.0399 18.0717 20.0883 18.1886 20.0883 18.3104V18.3693C20.4723 18.5097 20.7784 18.8208 20.9034 19.2319C20.9339 19.347 20.9186 19.4694 20.8607 19.5734C20.8027 19.6774 20.7067 19.7548 20.5928 19.7895C20.4789 19.8241 20.356 19.8132 20.25 19.759C20.144 19.7048 20.0632 19.6117 20.0245 19.4991C19.9992 19.4143 19.9472 19.3399 19.8762 19.287C19.8052 19.2341 19.719 19.2056 19.6305 19.2057H19.6273C19.5171 19.2066 19.4118 19.2512 19.3343 19.3296C19.2568 19.408 19.2135 19.5139 19.2139 19.6241C19.2139 19.7654 19.2818 19.8645 19.3384 19.9229C19.3882 19.9714 19.4874 20.0389 19.6292 20.0389C19.9828 20.0392 20.3219 20.1799 20.5719 20.43C20.8219 20.6801 20.9625 21.0192 20.9627 21.3729C20.9621 21.6457 20.878 21.9118 20.7217 22.1354C20.5654 22.359 20.3443 22.5294 20.0883 22.6236Z" fill="#11508E"/>
<path d="M12.0693 14.1113L18.7441 15.8248C16.5524 16.2428 14.8896 18.1673 14.876 20.4691C14.242 20.3681 13.7321 20.2576 13.3921 20.1566C13.0101 20.0443 12.6748 19.8112 12.4363 19.4924C12.1979 19.1735 12.0691 18.786 12.0693 18.3879V14.1113ZM27.1916 14.1113V18.3879C27.1908 18.7871 27.0605 19.1754 26.8203 19.4943C26.5801 19.8132 26.2429 20.0456 25.8594 20.1566C25.3862 20.2943 24.8948 20.4093 24.385 20.5008V20.4962C24.385 18.1814 22.7172 16.2428 20.5169 15.8248L27.1916 14.1113Z" fill="#11508E"/>
<path d="M29.8835 20.9608V20.8136C30.1516 20.7188 30.3838 20.5434 30.5483 20.3115C30.7127 20.0795 30.8015 19.8024 30.8023 19.5181C30.8021 19.233 30.7136 18.955 30.549 18.7223C30.3844 18.4896 30.1517 18.3136 29.8831 18.2184V12.1125C29.8831 11.8784 29.6997 11.69 29.5163 11.6624L19.7401 9.15005C19.6668 9.12707 19.5883 9.12707 19.515 9.15005L9.71716 11.6678C9.51475 11.7176 9.37256 11.9019 9.37256 12.1129C9.37256 12.3199 9.51475 12.5033 9.71671 12.5585L19.5155 15.0762C19.5852 15.0934 19.6631 15.0953 19.7406 15.0762L28.9647 12.7057V18.218C28.6955 18.3123 28.4623 18.4881 28.2976 18.721C28.1329 18.9539 28.0447 19.2323 28.0455 19.5176C28.0453 19.8023 28.1337 20.08 28.2984 20.3122C28.4631 20.5444 28.696 20.7196 28.9647 20.8136V20.9603C28.7704 21.0007 28.5945 21.1033 28.4635 21.2524C28.3326 21.4016 28.2537 21.5893 28.2388 21.7872L28.0871 23.7765C28.0645 24.0291 28.156 24.2818 28.3262 24.4702C28.5006 24.6581 28.7442 24.7641 29.0009 24.7641H29.8464C30.104 24.7641 30.3472 24.6581 30.522 24.4698C30.6918 24.2818 30.7837 24.0291 30.7606 23.7765L30.6089 21.7872C30.5941 21.5893 30.5153 21.4017 30.3844 21.2525C30.2535 21.1034 30.0777 21.0008 29.8835 20.9603V20.9608ZM22.3312 11.7276C22.2669 11.9707 22.0187 12.122 21.771 12.0581L19.6301 11.5066L17.485 12.0577C17.3668 12.0881 17.2414 12.0704 17.1363 12.0084C17.0312 11.9464 16.955 11.8452 16.9244 11.7271C16.9089 11.6686 16.9052 11.6076 16.9135 11.5476C16.9217 11.4876 16.9418 11.4299 16.9726 11.3777C17.0033 11.3256 17.0441 11.2801 17.0926 11.2438C17.1411 11.2075 17.1963 11.1813 17.255 11.1665L19.5155 10.5878C19.5888 10.5648 19.6673 10.5648 19.7406 10.5878L22.0002 11.1665C22.2488 11.2308 22.3955 11.4794 22.3312 11.7276Z" fill="#11508E"/>
</svg>
