<svg width="40" height="40" viewBox="0 0 40 40" fill="none" xmlns="http://www.w3.org/2000/svg">
<rect width="40" height="40" rx="20" fill="#ECFBFD"/>
<path d="M20.0002 9C18.0111 9 16.1034 9.79018 14.6969 11.1967C13.2904 12.6032 12.5002 14.5109 12.5002 16.5V22.35L10.8402 24.85C10.6412 25.1568 10.5284 25.5114 10.5134 25.8767C10.4985 26.2421 10.582 26.6047 10.7553 26.9267C10.9285 27.2487 11.1852 27.5182 11.4983 27.707C11.8114 27.8959 12.1695 27.997 12.5352 28H27.4652C27.8332 27.9988 28.194 27.898 28.5094 27.7085C28.8248 27.5189 29.083 27.2475 29.2568 26.9231C29.4305 26.5987 29.5133 26.2333 29.4963 25.8657C29.4792 25.4981 29.3631 25.142 29.1602 24.835L27.5002 22.35V16.5C27.5002 14.5109 26.71 12.6032 25.3035 11.1967C23.897 9.79018 21.9893 9 20.0002 9ZM20.0002 31C20.62 30.9993 21.2243 30.8066 21.7302 30.4485C22.2361 30.0904 22.6186 29.5844 22.8252 29H17.1752C17.3818 29.5844 17.7643 30.0904 18.2702 30.4485C18.776 30.8066 19.3804 30.9993 20.0002 31Z" fill="#11508E"/>
</svg>
