<svg width="40" height="40" viewBox="0 0 40 40" fill="none" xmlns="http://www.w3.org/2000/svg">
<rect width="40" height="40" rx="20" fill="#ECFBFD"/>
<path d="M19.1637 27.382C18.6546 27.3456 18.1091 27.3456 17.6 27.382C16.5818 27.4911 15.7818 28.3638 15.7818 29.4184V29.8184C15.7818 30.0002 15.9273 30.182 16.1455 30.182H20.6546C20.8364 30.182 21.0182 30.0365 21.0182 29.8184V29.4184C20.9818 28.3638 20.2182 27.4911 19.1637 27.382ZM22.3273 25.7456C22.3273 26.5093 22.9455 27.1274 23.7091 27.1274C24.3637 27.1274 24.9455 26.6184 25.0546 25.9638C25.1273 25.6002 25.0182 25.2002 24.7637 24.9093C24.5091 24.582 24.1091 24.4002 23.7091 24.4002C22.9455 24.3638 22.3273 24.982 22.3273 25.7456ZM27.6727 25.7456C27.6727 26.5093 28.2909 27.1274 29.0546 27.1274C29.7091 27.1274 30.2909 26.6184 30.4 25.9638C30.4727 25.6002 30.3637 25.2002 30.1091 24.9093C29.8182 24.582 29.4546 24.3638 29.0182 24.3638C28.2909 24.3638 27.6727 24.982 27.6727 25.7456ZM29.8182 27.382C29.3091 27.3456 28.7637 27.3456 28.2546 27.382C27.2 27.4911 26.4364 28.3638 26.4364 29.4184V29.8184C26.4364 30.0002 26.5818 30.182 26.8 30.182H31.2727C31.4546 30.182 31.6364 30.0365 31.6364 29.8184V29.4184C31.6364 28.3638 30.8727 27.4911 29.8182 27.382ZM17.0182 25.7456C17.0182 26.5093 17.6364 27.1274 18.4 27.1274C19.0546 27.1274 19.6364 26.6184 19.7455 25.9638C19.8182 25.6002 19.7091 25.2002 19.4546 24.9093C19.2 24.582 18.8 24.4002 18.4 24.4002C17.6364 24.3638 17.0182 24.982 17.0182 25.7456ZM24.5091 27.382C24 27.3456 23.4546 27.3456 22.9455 27.382C21.8909 27.4911 21.1273 28.3638 21.1273 29.4184V29.8184C21.1273 30.0002 21.2727 30.182 21.4909 30.182H26C26.1818 30.182 26.3637 30.0365 26.3637 29.8184V29.4184C26.3273 28.3638 25.5273 27.4911 24.5091 27.382ZM15.7091 14.0365C15.7091 14.6911 15.4546 15.2729 15.0182 15.7093C15.6364 15.782 16.2546 16.0729 16.7273 16.5093L17.2364 16.982L18.3273 15.9638C18.8727 15.4184 19.7818 15.382 20.4 15.8547C21.1637 16.4729 21.2364 17.6002 20.5091 18.2547L18.1818 20.4729C17.8909 20.7274 17.5273 20.8729 17.1273 20.8729C16.9091 20.8729 16.6546 20.8002 16.4727 20.7274V21.0184H29.6364C29.8182 21.0184 30 20.8729 30 20.6547V10.182C30 10.0002 29.8546 9.81836 29.6364 9.81836H13.7455C13.5637 9.81836 13.3818 9.96381 13.3818 10.182V11.6729C14.6546 11.7093 15.7091 12.7275 15.7091 14.0365ZM28.0364 18.8365H23.0909C22.9091 18.8365 22.7273 18.6911 22.7273 18.4729C22.7273 18.2911 22.8727 18.1093 23.0909 18.1093H28.0727C28.2546 18.1093 28.4364 18.2547 28.4364 18.4729C28.4 18.6911 28.2546 18.8365 28.0364 18.8365ZM28.0364 16.7638H23.6727C23.4909 16.7638 23.3091 16.6184 23.3091 16.4002C23.3091 16.2184 23.4546 16.0365 23.6727 16.0365H28.0727C28.2546 16.0365 28.4364 16.182 28.4364 16.4002C28.4 16.6184 28.2546 16.7638 28.0364 16.7638ZM28.0364 14.7274H21.9273C21.7455 14.7274 21.5637 14.582 21.5637 14.3638C21.5637 14.182 21.7091 14.0002 21.9273 14.0002H28.0727C28.2546 14.0002 28.4364 14.1456 28.4364 14.3638C28.4 14.5456 28.2546 14.7274 28.0364 14.7274ZM21.1273 11.9638H28.0727C28.2546 11.9638 28.4364 12.1093 28.4364 12.3275C28.4364 12.5093 28.2909 12.6911 28.0727 12.6911H21.1273C20.9455 12.6911 20.7637 12.5456 20.7637 12.3275C20.7637 12.1093 20.9091 11.9638 21.1273 11.9638Z" fill="#11508E"/>
<path d="M13.3456 15.6736C14.2547 15.6736 15.0183 14.9463 15.0183 14.0009C15.0183 13.0918 14.291 12.3281 13.3456 12.3281C12.4365 12.3281 11.6728 13.0554 11.6728 14.0009C11.6728 14.9463 12.4365 15.6736 13.3456 15.6736ZM17.6728 19.8918L20.0001 17.6736C20.4001 17.3099 20.3638 16.6554 19.9274 16.3281C19.5638 16.0736 19.091 16.0736 18.7638 16.4009L17.3456 17.7463C17.2728 17.819 17.1638 17.819 17.091 17.7463L16.2183 16.9827C15.7819 16.5827 15.2001 16.3645 14.5819 16.3645H12.2183C11.4183 16.3645 10.6183 16.6918 10.0728 17.3099C9.4183 18.0009 8.58193 19.1645 8.36375 20.7281C8.32739 21.0554 8.43648 21.3827 8.69102 21.5645C8.94557 21.7827 9.34557 21.819 9.63648 21.6736C9.92739 21.5281 10.1456 21.2736 10.1819 20.9099C10.2547 20.3281 10.5092 19.7827 10.9092 19.2736V25.6736C10.9092 26.2918 11.4183 26.7645 12.0001 26.7645C12.5819 26.7645 13.0547 26.3281 13.091 25.7463L13.2728 22.8736L13.4547 25.7463C13.491 26.3281 13.9638 26.7645 14.5456 26.7645H14.5819C15.1638 26.7645 15.6728 26.2554 15.6728 25.6736V19.1645L16.4728 19.8918C16.8728 20.219 17.3456 20.219 17.6728 19.8918Z" fill="#11508E"/>
</svg>
