<svg width="24" height="24" viewBox="0 0 24 24" fill="none" xmlns="http://www.w3.org/2000/svg">
<path d="M16.029 15.3917C15.4604 15.3917 14.9978 14.9913 14.9978 14.4992C14.9978 14.007 15.4604 13.6066 16.029 13.6066C16.5976 13.6066 17.0603 14.007 17.0603 14.4992C17.0603 14.758 17.2702 14.9679 17.529 14.9679C17.7878 14.9679 17.9978 14.758 17.9978 14.4992C17.9978 13.6402 17.3577 12.918 16.4978 12.7219V12.4781C16.4978 12.2193 16.2878 12.0094 16.029 12.0094C15.7702 12.0094 15.5603 12.2193 15.5603 12.4781V12.7219C14.7003 12.918 14.0603 13.6402 14.0603 14.4992C14.0603 15.5083 14.9434 16.3292 16.029 16.3292C16.5976 16.3292 17.0603 16.7296 17.0603 17.2218C17.0603 17.714 16.5976 18.1144 16.029 18.1144C15.4604 18.1144 14.9978 17.714 14.9978 17.2218C14.9978 16.963 14.7878 16.7531 14.529 16.7531C14.2702 16.7531 14.0603 16.963 14.0603 17.2218C14.0603 18.0808 14.7003 18.8031 15.5603 18.9991V19.2016C15.5603 19.4604 15.7702 19.6703 16.029 19.6703C16.2878 19.6703 16.4978 19.4604 16.4978 19.2016V18.9991C17.3577 18.8031 17.9978 18.0808 17.9978 17.2218C17.9978 16.2127 17.1146 15.3917 16.029 15.3917ZM21.1631 12.6035C20.5522 11.6506 19.6885 10.8862 18.6683 10.3957C18.435 10.2834 18.1549 10.3817 18.0428 10.615C17.9306 10.8484 18.0288 11.1284 18.2621 11.2406C20.0392 12.0948 21.1874 13.9201 21.1874 15.8906C21.1874 16.7338 20.9796 17.57 20.5864 18.309C20.4648 18.5375 20.5515 18.8213 20.7801 18.9429C20.8898 19.0013 21.0183 19.0137 21.1372 18.9774C21.2561 18.9411 21.3557 18.859 21.414 18.7493C21.8791 17.8754 22.1249 16.8868 22.1249 15.8906C22.1249 14.7206 21.7923 13.584 21.1631 12.6035ZM16.7658 9.79692L16.7343 9.79688C16.4754 9.79688 16.2655 10.0067 16.2655 10.2656C16.2655 10.5245 16.4754 10.7344 16.7343 10.7344L16.7614 10.7344H16.7637C17.0215 10.7344 17.2312 10.526 17.2324 10.2679C17.2335 10.009 17.0247 9.79814 16.7658 9.79692ZM13.8002 20.5407C12.0232 19.6864 10.875 17.8611 10.875 15.8906C10.875 15.0474 11.0828 14.2112 11.476 13.4723C11.5976 13.2438 11.5109 12.9599 11.2823 12.8383C11.0539 12.7167 10.7699 12.8034 10.6484 13.032C10.1833 13.9059 9.9375 14.8944 9.9375 15.8906C9.9375 17.0606 10.2701 18.1973 10.8993 19.1777C11.5102 20.1307 12.3739 20.8951 13.3941 21.3856C13.5057 21.4368 13.633 21.442 13.7485 21.4003C13.864 21.3586 13.9586 21.2732 14.0118 21.1625C14.065 21.0518 14.0726 20.9246 14.0331 20.8083C13.9935 20.6921 13.9099 20.596 13.8002 20.5407ZM15.3281 21.0469L15.301 21.0468C15.0409 21.0463 14.8313 21.2544 14.8301 21.5133C14.8289 21.7722 15.0379 21.9831 15.2967 21.9843L15.3281 21.9844C15.587 21.9844 15.7969 21.7745 15.7969 21.5156C15.7969 21.2568 15.587 21.0469 15.3281 21.0469Z" fill="white"/>
<path d="M18.1598 8.21098C18.1035 8.07664 18.0337 7.94836 17.9515 7.82811H19.1718C20.3608 7.82811 21.3281 6.8608 21.3281 5.67186C21.3281 4.48293 20.3608 3.51562 19.1718 3.51562H15.4181C15.6651 3.15724 15.7973 2.73215 15.7968 2.29687C15.7968 1.10794 14.8295 0.140625 13.6406 0.140625H2.15625C0.967311 0.140625 0 1.10794 0 2.29687C0 3.48581 0.967311 4.45312 2.15625 4.45312H5.90999C5.67135 4.80008 5.53124 5.21985 5.53124 5.67186C5.53124 6.12388 5.6713 6.54364 5.90999 6.89061H4.68749C3.49856 6.89061 2.53124 7.85792 2.53124 9.04686C2.53124 9.72968 2.85065 10.339 3.34757 10.7344C2.85065 11.1297 2.53124 11.739 2.53124 12.4219C2.53124 13.1047 2.85065 13.714 3.34757 14.1093C2.85065 14.5047 2.53124 15.114 2.53124 15.7968C2.53124 16.4797 2.85065 17.089 3.34757 17.4843C2.85065 17.8797 2.53124 18.489 2.53124 19.1718C2.53124 20.3608 3.49856 21.3281 4.68749 21.3281H10.2117C11.667 22.8847 13.7373 23.8594 16.0313 23.8594C20.4252 23.8594 24 20.2846 24 15.8906C24 12.2336 21.5236 9.1445 18.1598 8.21098ZM19.1718 4.45312C19.8439 4.45312 20.3906 4.99987 20.3906 5.67186C20.3906 6.34386 19.8439 6.89061 19.1718 6.89061H7.68748C7.01544 6.89061 6.46874 6.34386 6.46874 5.67186C6.46874 4.99987 7.01544 4.45312 7.68748 4.45312H19.1718ZM2.15625 3.51562C1.4842 3.51562 0.937498 2.96887 0.937498 2.29687C0.937498 1.62487 1.4842 1.07812 2.15625 1.07812H13.6406C14.3126 1.07812 14.8593 1.62487 14.8593 2.29687C14.8593 2.96887 14.3126 3.51562 13.6406 3.51562H2.15625ZM4.68749 7.82811H16.1718C16.3607 7.82811 16.5415 7.87198 16.7036 7.95055C16.4819 7.93194 16.2578 7.92191 16.0313 7.92191C13.8307 7.92191 11.8357 8.81858 10.3923 10.2656H4.68749C4.01549 10.2656 3.46874 9.71886 3.46874 9.04686C3.46874 8.37486 4.01549 7.82811 4.68749 7.82811ZM4.68749 11.2031H9.59131C9.05919 11.9321 8.64776 12.7544 8.38648 13.6406H4.68749C4.01545 13.6406 3.46874 13.0939 3.46874 12.4219C3.46874 11.7499 4.01545 11.2031 4.68749 11.2031ZM4.68749 14.5781H8.17123C8.09893 15.0119 8.06257 15.4509 8.06253 15.8906C8.06253 16.2725 8.09014 16.648 8.14231 17.0156H4.68749C4.01545 17.0156 3.46874 16.4689 3.46874 15.7968C3.46874 15.1248 4.01545 14.5781 4.68749 14.5781ZM4.68749 20.3906C4.01545 20.3906 3.46874 19.8439 3.46874 19.1718C3.46874 18.4998 4.01545 17.9531 4.68749 17.9531H8.3337C8.56748 18.8235 8.94781 19.6478 9.45837 20.3906H4.68749ZM16.0313 22.9219C12.1542 22.9219 9.00003 19.7677 9.00003 15.8906C9.00003 12.0136 12.1542 8.8594 16.0313 8.8594C19.9083 8.8594 23.0625 12.0136 23.0625 15.8906C23.0625 19.7677 19.9083 22.9219 16.0313 22.9219Z" fill="white"/>
</svg>
