<svg width="24" height="24" viewBox="0 0 24 24" fill="none" xmlns="http://www.w3.org/2000/svg">
<path d="M12.0026 13.4673C12.0992 13.5226 12.2085 13.5517 12.3198 13.5518C12.542 13.5518 12.758 13.4361 12.8758 13.2295C13.0513 12.9227 12.9448 12.5316 12.638 12.3562C10.1968 10.9599 8.89582 9.40788 8.54254 7.47139C8.38586 6.60855 8.5682 5.33041 9.32878 4.41902C9.9597 3.66294 10.8714 3.27955 12.0383 3.27955C13.8614 3.27955 15.1617 4.28902 15.5171 5.98005C15.8665 7.64404 15.1326 9.80651 13.054 10.7203C12.7306 10.8631 12.5833 11.2407 12.7257 11.5641C12.8682 11.8875 13.2464 12.0335 13.5692 11.8924C16.2721 10.704 17.2254 7.88634 16.7699 5.71728C16.3921 3.92016 14.9509 2 12.0387 2C10.0901 2 8.95507 2.86979 8.34602 3.59915C7.25022 4.91229 7.08866 6.62898 7.2835 7.70053C7.84298 10.7706 10.245 12.4623 12.0026 13.4673Z" fill="white"/>
<path d="M6.42965 14.1478C6.96593 13.6631 7.56322 13.2645 7.98443 13.0079C8.92976 14.6168 10.3968 15.5573 12.0109 15.5573C13.6052 15.5573 15.0588 14.6161 16.0014 13.0059C16.9134 13.5609 18.3025 14.5856 18.6713 15.6308C18.7639 15.8935 19.0107 16.0579 19.2749 16.0579C19.3453 16.0579 19.417 16.0461 19.4881 16.0211C19.8216 15.9036 19.9963 15.5379 19.8784 15.2047C19.1588 13.167 16.1574 11.6185 16.0298 11.5537C15.9531 11.5143 15.8692 11.4909 15.7832 11.485C15.6973 11.479 15.6109 11.4906 15.5296 11.519C15.4482 11.5474 15.3734 11.5919 15.3096 11.6498C15.2458 11.7078 15.1943 11.778 15.1583 11.8563C14.4511 13.3948 13.304 14.277 12.0113 14.277C10.7141 14.277 9.52327 13.3722 8.82613 11.8563C8.79014 11.778 8.7387 11.7077 8.6749 11.6497C8.6111 11.5918 8.53625 11.5473 8.45485 11.519C8.28985 11.4614 8.10958 11.4746 7.95427 11.5533C7.90158 11.5803 6.65254 12.2213 5.57166 13.1979C5.30924 13.4346 5.28877 13.8396 5.52591 14.1016C5.76267 14.364 6.16758 14.3842 6.42965 14.1478ZM21.3597 20.7198H2.63995C2.28667 20.7198 2 21.0065 2 21.3597C2 21.7129 2.28667 21.9993 2.63995 21.9993H21.3597C21.7129 21.9993 22 21.7133 22 21.3597C22 21.0061 21.7133 20.7198 21.3597 20.7198ZM3.62099 16.4825C3.2601 16.4635 2.97135 16.746 2.95885 17.0996C2.94635 17.4525 3.22267 17.7492 3.57591 17.7614C6.7548 17.873 8.85832 18.3983 10.1001 19.0361C8.42411 18.8712 5.86251 18.6769 3.09611 18.6769C2.74288 18.6769 2.45616 18.9633 2.45616 19.3168C2.45616 19.6704 2.74253 19.9568 3.09611 19.9568C7.78369 19.9568 11.8694 20.525 11.9103 20.5308C11.9168 20.5317 11.9233 20.5322 11.9297 20.5329C11.9352 20.5335 11.9407 20.5341 11.9462 20.5346C11.964 20.5361 11.9819 20.5371 11.9998 20.5371C12.0179 20.5371 12.0359 20.5361 12.0537 20.5346C12.059 20.5342 12.0643 20.5335 12.0696 20.5329C12.0761 20.5322 12.0827 20.5318 12.0892 20.5308C12.1298 20.5253 16.2104 19.9568 20.9024 19.9568C21.256 19.9568 21.5427 19.6704 21.5427 19.3168C21.5427 18.9633 21.2561 18.6769 20.9024 18.6769C18.1363 18.6769 15.5754 18.8711 13.8997 19.036C15.1415 18.3983 17.2448 17.873 20.4233 17.7614C20.7762 17.7492 21.0526 17.4529 21.0404 17.0996C21.0279 16.7467 20.7385 16.4749 20.3783 16.4825C15.2477 16.6624 12.994 17.8259 12.0012 18.8312C11.015 17.831 8.76234 16.6631 3.62099 16.4825ZM4.76983 15.9583C4.82687 16.0524 4.90723 16.1302 5.00312 16.1841C5.09901 16.238 5.20719 16.2663 5.31721 16.2662C5.43056 16.2662 5.54533 16.236 5.64931 16.1726C5.95126 15.9892 6.04727 15.5954 5.86356 15.2935L3.29963 11.0787C3.11588 10.7772 2.72276 10.6804 2.42015 10.8645C2.1182 11.0479 2.02219 11.4417 2.20589 11.7436L4.76983 15.9583Z" fill="white"/>
</svg>
