<svg width="53" height="52" viewBox="0 0 53 52" fill="none" xmlns="http://www.w3.org/2000/svg">
<g clip-path="url(#clip0_821_8439)">
<path d="M26.5 0C12.1411 0 0.5 11.637 0.5 26C0.5 40.363 12.1411 52 26.5 52C40.8589 52 52.5 40.3559 52.5 26C52.5 11.6441 40.8589 0 26.5 0Z" fill="#2AD352"/>
<path d="M0.500024 26C0.494155 30.2976 1.55838 34.529 3.59666 38.3125C6.1935 39.0749 8.88624 39.461 11.5927 39.4591C27.2231 39.4591 39.8941 26.7882 39.8941 11.1577C39.8964 8.40834 39.4982 5.67331 38.7119 3.03879C34.9532 1.03671 30.7586 -0.0070559 26.5 3.58983e-05C12.1411 3.58983e-05 0.500024 11.6371 0.500024 26Z" fill="#74DA7F"/>
<path d="M41.3283 21.6921L25.7008 38.1036C25.275 38.5504 24.7633 38.9066 24.1965 39.1509C23.6296 39.3952 23.0193 39.5226 22.4021 39.5255H22.3818C21.768 39.5256 21.1604 39.4025 20.5951 39.1633C20.0299 38.9241 19.5184 38.5737 19.0912 38.133L10.7986 29.5916C10.3701 29.1615 10.0313 28.6506 9.8019 28.0886C9.57247 27.5265 9.45696 26.9245 9.46208 26.3174C9.46719 25.7103 9.59283 25.1103 9.83169 24.5522C10.0706 23.9941 10.4179 23.4889 10.8536 23.0661C11.2892 22.6433 11.8045 22.3112 12.3695 22.0892C12.9345 21.8671 13.538 21.7595 14.145 21.7725C14.752 21.7856 15.3503 21.9191 15.9052 22.1652C16.4602 22.4113 16.9607 22.7653 17.3778 23.2064L22.3493 28.3272L34.6881 15.3698C35.1014 14.9266 35.5986 14.5698 36.1507 14.3199C36.7028 14.07 37.299 13.9321 37.9048 13.9141C38.5106 13.8961 39.1139 13.9984 39.6799 14.2151C40.2459 14.4318 40.7633 14.7585 41.2022 15.1764C41.6411 15.5943 41.9928 16.0951 42.2369 16.6497C42.4811 17.2044 42.6128 17.802 42.6246 18.4079C42.6363 19.0139 42.5278 19.6161 42.3052 20.1798C42.0827 20.7435 41.7507 21.2575 41.3283 21.6921Z" fill="white"/>
</g>
<defs>
<clipPath id="clip0_821_8439">
<rect width="52" height="52" fill="white" transform="translate(0.5)"/>
</clipPath>
</defs>
</svg>
