<svg width="16" height="20" viewBox="0 0 16 20" fill="none" xmlns="http://www.w3.org/2000/svg">
<path d="M10.7377 19.5018L15.252 14.9875C15.3306 14.9089 15.393 14.8155 15.4355 14.7128C15.4781 14.6101 15.5 14.5 15.5 14.3888C15.5 14.2776 15.4781 14.1675 15.4355 14.0648C15.393 13.962 15.3306 13.8687 15.252 13.7901C15.1734 13.7114 15.08 13.6491 14.9773 13.6065C14.8746 13.564 14.7645 13.5421 14.6533 13.5421C14.5421 13.5421 14.432 13.564 14.3293 13.6065C14.2266 13.6491 14.1332 13.7114 14.0546 13.7901L10.9849 16.8598L10.9849 0.846432C10.9849 0.621944 10.8957 0.406651 10.7369 0.247914C10.5782 0.0891771 10.3629 -2.24549e-07 10.1384 -2.34362e-07C9.91394 -2.44175e-07 9.69865 0.0891771 9.53991 0.247914C9.38117 0.406651 9.29199 0.621944 9.29199 0.846432L9.29199 18.9037C9.29214 19.071 9.34186 19.2345 9.43488 19.3735C9.5279 19.5126 9.66004 19.6209 9.81461 19.685C9.96918 19.749 10.1393 19.7657 10.3034 19.7331C10.4674 19.7005 10.6193 19.62 10.7377 19.5018Z" fill="#373743"/>
<path d="M6.47201 18.9039L6.47202 0.846665C6.47187 0.679364 6.42215 0.51586 6.32913 0.376802C6.23611 0.237744 6.10397 0.129369 5.9494 0.065366C5.79482 0.00136288 5.62475 -0.015398 5.46066 0.0172002C5.29656 0.0497984 5.14581 0.130294 5.02744 0.248519L0.513132 4.76282C0.434376 4.84126 0.371886 4.93447 0.329245 5.03712C0.286604 5.13976 0.264654 5.24982 0.264654 5.36097C0.264654 5.47212 0.286604 5.58218 0.329245 5.68482C0.371886 5.78747 0.434376 5.88068 0.513132 5.95911C0.591737 6.03777 0.685073 6.10017 0.787802 6.14274C0.890531 6.18531 1.00064 6.20722 1.11184 6.20722C1.22304 6.20722 1.33315 6.18531 1.43588 6.14274C1.53861 6.10017 1.63195 6.03777 1.71055 5.95911L4.78028 2.88939L4.78028 18.9028C4.78028 19.1272 4.86946 19.3425 5.02819 19.5013C5.18693 19.66 5.40222 19.7492 5.62671 19.7492C5.8512 19.7492 6.06649 19.66 6.22523 19.5013C6.38397 19.3425 6.47314 19.1272 6.47314 18.9028L6.47201 18.9039Z" fill="#373743"/>
</svg>
