<svg width="24" height="24" viewBox="0 0 24 24" fill="none" xmlns="http://www.w3.org/2000/svg">
<path d="M20.1589 2.28662H11.3724C10.3572 2.28662 9.53125 3.23107 9.53125 4.39183V10.8367L7.89977 9.90901C7.8446 9.87763 7.78874 9.84791 7.73223 9.81986C8.21121 9.24814 8.50645 8.47347 8.50645 7.62117C8.50645 5.86681 7.25828 4.43944 5.72402 4.43944C4.18961 4.43944 2.94145 5.86681 2.94145 7.62117C2.94145 8.57446 3.31055 9.43078 3.8934 10.0144C2.82004 10.7049 2 12.052 2 13.7209V15.8738C2 16.8006 2.52629 17.5894 3.2552 17.8697V21.6148C3.2552 21.9847 3.5175 22.2848 3.84113 22.2848H7.60668C7.93031 22.2848 8.19262 21.9847 8.19262 21.6148V14.0872L10.0686 15.1595C10.7865 15.5699 11.7603 15.3252 12.2007 14.3909H14.3015L12.0769 21.3857C11.9663 21.7335 12.1233 22.118 12.4274 22.2443C12.775 22.389 13.0841 22.1396 13.1783 21.8437L15.5484 14.3909H15.9592L18.3536 21.8458C18.4445 22.1286 18.7514 22.3924 19.1057 22.2436C19.4094 22.1161 19.5653 21.7312 19.4536 21.3838L17.2075 14.3909H20.1589C21.1544 14.3909 22 13.4726 22 12.2857V4.39183C22 3.20471 21.1544 2.28662 20.1589 2.28662ZM4.11336 7.62117C4.11336 6.60553 4.83586 5.7794 5.72391 5.7794C6.61211 5.7794 7.33461 6.60553 7.33461 7.62117C7.33461 8.63659 6.61211 9.46271 5.72391 9.46271C4.83586 9.46271 4.11336 8.63659 4.11336 7.62117ZM11.1992 13.6745C11.1977 13.6794 11.1962 13.6844 11.1948 13.6895C11.1548 13.817 11.0645 13.9245 10.9539 13.9765C10.8962 14.0034 10.8341 14.0159 10.7718 14.0132C10.7095 14.0105 10.6485 13.9927 10.5927 13.9609C9.47848 13.3236 7.86852 12.4039 7.86852 12.4039C7.47973 12.1817 7.02074 12.5055 7.02074 13.0033V20.9448H4.42707V17.3089C4.42707 16.939 4.16461 16.6389 3.84113 16.6389C3.47199 16.6389 3.17188 16.2957 3.17188 15.8737V13.7209C3.17188 12.0838 4.33766 10.8029 5.72391 10.8029H6.24164C6.63441 10.8029 7.02672 10.9083 7.37719 11.1084C7.37719 11.1084 10.2836 12.761 11.0237 13.1825C11.1823 13.2725 11.2577 13.4839 11.1992 13.6745ZM20.8281 12.2857C20.8281 12.4903 20.7587 12.6825 20.6323 12.8269C20.508 12.9693 20.3354 13.0509 20.1589 13.0509H12.328C12.327 13.0473 12.3263 13.0436 12.3252 13.0401L13.7793 9.71481C13.924 9.38384 13.8068 8.98154 13.5173 8.81596C13.228 8.65052 12.876 8.78452 12.7312 9.11553L11.491 11.9516C11.2598 11.8198 10.9911 11.6669 10.7032 11.5032V4.39187C10.7032 3.96996 11.0033 3.62662 11.3724 3.62662H20.1589C20.3354 3.62662 20.508 3.70827 20.6325 3.85098C20.7587 3.99511 20.8281 4.18722 20.8281 4.39187V12.2857Z" fill="white"/>
<path d="M18.9037 5.15708H12.6276C12.3039 5.15708 12.0416 5.45696 12.0416 5.82705C12.0416 6.19715 12.3039 6.49703 12.6276 6.49703H18.9037C19.2272 6.49703 19.4896 6.19711 19.4896 5.82705C19.4896 5.457 19.2273 5.15708 18.9037 5.15708ZM18.9037 7.66878H15.7655C15.4421 7.66878 15.1796 7.96871 15.1796 8.33876C15.1796 8.70881 15.4421 9.00874 15.7655 9.00874H18.9037C19.2272 9.00874 19.4896 8.70881 19.4896 8.33876C19.4896 7.96871 19.2273 7.66878 18.9037 7.66878ZM18.9037 10.1805H15.7655C15.4421 10.1805 15.1796 10.4804 15.1796 10.8505C15.1796 11.2204 15.4421 11.5204 15.7655 11.5204H18.9037C19.2272 11.5204 19.4896 11.2204 19.4896 10.8505C19.4896 10.4804 19.2273 10.1805 18.9037 10.1805Z" fill="white"/>
</svg>
