<svg width="24" height="24" viewBox="0 0 24 24" fill="none" xmlns="http://www.w3.org/2000/svg">
<path d="M21.5018 8.7623L16.9875 4.24799C16.9089 4.16937 16.8155 4.107 16.7128 4.06445C16.6101 4.0219 16.5 4 16.3888 4C16.2776 4 16.1675 4.0219 16.0648 4.06445C15.962 4.107 15.8687 4.16937 15.7901 4.24799C15.7114 4.32662 15.6491 4.41996 15.6065 4.52268C15.564 4.62541 15.5421 4.73551 15.5421 4.8467C15.5421 4.95789 15.564 5.068 15.6065 5.17072C15.6491 5.27345 15.7114 5.36679 15.7901 5.44541L18.8598 8.51514H2.84643C2.62194 8.51514 2.40665 8.60432 2.24791 8.76305C2.08918 8.92179 2 9.13709 2 9.36157C2 9.58606 2.08918 9.80135 2.24791 9.96009C2.40665 10.1188 2.62194 10.208 2.84643 10.208H20.9037C21.071 10.2079 21.2345 10.1581 21.3735 10.0651C21.5126 9.9721 21.6209 9.83996 21.685 9.68539C21.749 9.53082 21.7657 9.36074 21.7331 9.19665C21.7005 9.03255 21.62 8.88067 21.5018 8.7623Z" fill="white"/>
<path d="M20.9039 13.028H2.84666C2.67936 13.0281 2.51586 13.0779 2.3768 13.1709C2.23774 13.2639 2.12937 13.396 2.06537 13.5506C2.00136 13.7052 1.9846 13.8752 2.0172 14.0393C2.0498 14.2034 2.13029 14.3542 2.24852 14.4726L6.76282 18.9869C6.84126 19.0656 6.93447 19.1281 7.03712 19.1708C7.13976 19.2134 7.24982 19.2353 7.36097 19.2353C7.47212 19.2353 7.58218 19.2134 7.68482 19.1708C7.78747 19.1281 7.88068 19.0656 7.95911 18.9869C8.03777 18.9083 8.10017 18.8149 8.14274 18.7122C8.18531 18.6095 8.20722 18.4994 8.20722 18.3882C8.20722 18.277 8.18531 18.1668 8.14274 18.0641C8.10017 17.9614 8.03777 17.8681 7.95911 17.7894L4.88939 14.7197H20.9028C21.1272 14.7197 21.3425 14.6305 21.5013 14.4718C21.66 14.3131 21.7492 14.0978 21.7492 13.8733C21.7492 13.6488 21.66 13.4335 21.5013 13.2748C21.3425 13.116 21.1272 13.0269 20.9028 13.0269L20.9039 13.028Z" fill="white"/>
</svg>
