<svg width="24" height="25" viewBox="0 0 24 25" fill="none" xmlns="http://www.w3.org/2000/svg">
<path d="M13.5001 15.6495C14.6758 14.9173 15.581 13.822 16.0788 12.5294C16.5766 11.2368 16.6399 9.81732 16.2591 8.48558C15.8783 7.15385 15.0741 5.98237 13.9682 5.14839C12.8623 4.3144 11.5149 3.86328 10.1298 3.86328C8.74467 3.86328 7.39724 4.3144 6.29134 5.14839C5.18545 5.98237 4.38126 7.15385 4.00045 8.48558C3.61964 9.81732 3.68292 11.2368 4.18072 12.5294C4.67852 13.822 5.58375 14.9173 6.75947 15.6495C4.82353 16.2833 3.08165 17.4673 1.68103 19.1342C1.6154 19.2093 1.5654 19.2966 1.53394 19.3912C1.50247 19.4858 1.49019 19.5857 1.49779 19.6851C1.5054 19.7845 1.53274 19.8814 1.57823 19.9701C1.62371 20.0589 1.68643 20.1376 1.76271 20.2018C1.83898 20.266 1.92729 20.3143 2.02247 20.344C2.11764 20.3736 2.21778 20.384 2.31702 20.3745C2.41625 20.365 2.5126 20.3359 2.60043 20.2887C2.68826 20.2415 2.7658 20.1773 2.82853 20.0998C4.71103 17.8536 7.30415 16.617 10.1251 16.617C12.946 16.617 15.5392 17.8536 17.4254 20.0998C17.5535 20.2523 17.7368 20.3476 17.9351 20.3648C18.1334 20.382 18.3305 20.3198 18.4829 20.1917C18.6353 20.0637 18.7306 19.8803 18.7479 19.682C18.7651 19.4837 18.7028 19.2866 18.5748 19.1342C17.1732 17.4673 15.4313 16.2833 13.5001 15.6495ZM5.25009 10.242C5.25009 9.27785 5.53601 8.33532 6.07168 7.53363C6.60735 6.73194 7.36872 6.1071 8.25951 5.73812C9.1503 5.36914 10.1305 5.2726 11.0762 5.4607C12.0218 5.64881 12.8905 6.1131 13.5722 6.79488C14.254 7.47667 14.7183 8.34531 14.9064 9.29097C15.0945 10.2366 14.998 11.2168 14.629 12.1076C14.26 12.9984 13.6352 13.7598 12.8335 14.2954C12.0318 14.8311 11.0893 15.117 10.1251 15.117C8.83262 15.1155 7.59351 14.6015 6.67959 13.6875C5.76567 12.7736 5.25158 11.5345 5.25009 10.242ZM22.8985 14.2798L22.4617 14.0277C22.5129 13.7563 22.5129 13.4778 22.4617 13.2064L22.8985 12.9542C23.0708 12.8548 23.1966 12.6909 23.2481 12.4988C23.2996 12.3066 23.2727 12.1018 23.1732 11.9295C23.0738 11.7572 22.9099 11.6315 22.7178 11.58C22.5256 11.5285 22.3208 11.5554 22.1485 11.6548L21.7107 11.908C21.5012 11.7282 21.2603 11.5887 21.0001 11.4964V10.992C21.0001 10.7931 20.9211 10.6024 20.7804 10.4617C20.6398 10.321 20.449 10.242 20.2501 10.242C20.0512 10.242 19.8604 10.321 19.7198 10.4617C19.5791 10.6024 19.5001 10.7931 19.5001 10.992V11.4964C19.2399 11.5887 18.999 11.7282 18.7895 11.908L18.3517 11.6548C18.2663 11.6056 18.1722 11.5736 18.0745 11.5608C17.9768 11.5479 17.8776 11.5545 17.7824 11.58C17.6873 11.6055 17.5981 11.6495 17.5199 11.7095C17.4418 11.7694 17.3762 11.8442 17.327 11.9295C17.2777 12.0148 17.2458 12.109 17.2329 12.2067C17.2201 12.3044 17.2266 12.4036 17.2521 12.4988C17.2776 12.5939 17.3216 12.6831 17.3816 12.7613C17.4416 12.8394 17.5163 12.905 17.6017 12.9542L18.0385 13.2064C17.9873 13.4778 17.9873 13.7563 18.0385 14.0277L17.6017 14.2798C17.4293 14.3793 17.3036 14.5431 17.2521 14.7353C17.2006 14.9275 17.2275 15.1322 17.327 15.3045C17.4264 15.4768 17.5903 15.6026 17.7824 15.6541C17.9746 15.7056 18.1793 15.6787 18.3517 15.5792L18.7895 15.3261C18.999 15.5059 19.2399 15.6454 19.5001 15.7377V16.242C19.5001 16.4409 19.5791 16.6317 19.7198 16.7724C19.8604 16.913 20.0512 16.992 20.2501 16.992C20.449 16.992 20.6398 16.913 20.7804 16.7724C20.9211 16.6317 21.0001 16.4409 21.0001 16.242V15.7377C21.2603 15.6454 21.5012 15.5059 21.7107 15.3261L22.1485 15.5792C22.2624 15.6453 22.3918 15.6799 22.5235 15.6795C22.6887 15.6796 22.8492 15.6251 22.9803 15.5246C23.1113 15.4241 23.2055 15.2832 23.2483 15.1236C23.291 14.9641 23.2799 14.7949 23.2167 14.6424C23.1534 14.4898 23.0416 14.3624 22.8985 14.2798ZM19.5001 13.617C19.5001 13.4687 19.5441 13.3237 19.6265 13.2004C19.7089 13.077 19.826 12.9809 19.9631 12.9241C20.1001 12.8674 20.2509 12.8525 20.3964 12.8814C20.5419 12.9104 20.6755 12.9818 20.7804 13.0867C20.8853 13.1916 20.9567 13.3252 20.9857 13.4707C21.0146 13.6162 20.9998 13.767 20.943 13.904C20.8862 14.0411 20.7901 14.1582 20.6668 14.2406C20.5434 14.323 20.3984 14.367 20.2501 14.367C20.0512 14.367 19.8604 14.288 19.7198 14.1474C19.5791 14.0067 19.5001 13.8159 19.5001 13.617Z" fill="#373743"/>
</svg>
