<svg width="25" height="24" viewBox="0 0 25 24" fill="none" xmlns="http://www.w3.org/2000/svg">
<path d="M23.4503 14.1C23.3715 14.1591 23.2818 14.2021 23.1864 14.2266C23.091 14.251 22.9917 14.2564 22.8942 14.2425C22.7967 14.2286 22.7029 14.1956 22.6182 14.1454C22.5334 14.0952 22.4594 14.0288 22.4003 13.95C21.9482 13.3424 21.3598 12.8494 20.6824 12.5107C20.0051 12.172 19.2576 11.9971 18.5003 12C18.3528 12 18.2086 11.9565 18.0857 11.875C17.9628 11.7935 17.8667 11.6775 17.8093 11.5416C17.7704 11.4493 17.7504 11.3502 17.7504 11.25C17.7504 11.1499 17.7704 11.0508 17.8093 10.9585C17.8667 10.8226 17.9628 10.7066 18.0857 10.6251C18.2086 10.5436 18.3528 10.5001 18.5003 10.5C18.9211 10.5 19.3335 10.382 19.6906 10.1593C20.0476 9.93665 20.3351 9.61831 20.5204 9.24046C20.7056 8.8626 20.7812 8.44037 20.7385 8.02173C20.6958 7.60308 20.5365 7.2048 20.2788 6.87213C20.0211 6.53946 19.6753 6.28572 19.2806 6.13975C18.8859 5.99378 18.4582 5.96142 18.046 6.04634C17.6338 6.13127 17.2538 6.33008 16.9489 6.62019C16.6441 6.91031 16.4267 7.28009 16.3215 7.68755C16.2969 7.78296 16.2537 7.87259 16.1945 7.95132C16.1352 8.03004 16.061 8.09633 15.9761 8.14639C15.8913 8.19644 15.7974 8.22929 15.6998 8.24305C15.6022 8.25682 15.5029 8.25123 15.4075 8.22661C15.3121 8.20199 15.2224 8.15881 15.1437 8.09955C15.065 8.04029 14.9987 7.9661 14.9486 7.88122C14.8986 7.79634 14.8657 7.70243 14.852 7.60486C14.8382 7.50729 14.8438 7.40796 14.8684 7.31255C15.0144 6.74753 15.2903 6.22439 15.6741 5.78475C16.0579 5.34511 16.539 5.00111 17.0791 4.78012C17.6192 4.55913 18.2034 4.46725 18.7853 4.51179C19.3672 4.55633 19.9307 4.73606 20.4309 5.03668C20.931 5.3373 21.3542 5.75051 21.6666 6.24344C21.979 6.73636 22.172 7.2954 22.2303 7.87606C22.2887 8.45672 22.2107 9.04297 22.0026 9.58819C21.7944 10.1334 21.4619 10.6225 21.0315 11.0166C22.0514 11.4582 22.9379 12.1589 23.6031 13.0491C23.6622 13.1281 23.7051 13.218 23.7294 13.3136C23.7537 13.4092 23.7589 13.5087 23.7447 13.6063C23.7305 13.7039 23.6972 13.7978 23.6467 13.8825C23.5962 13.9672 23.5294 14.0412 23.4503 14.1ZM18.399 19.875C18.4533 19.9604 18.4897 20.0559 18.5062 20.1557C18.5226 20.2555 18.5186 20.3576 18.4946 20.4558C18.4705 20.5541 18.4268 20.6464 18.3661 20.7274C18.3054 20.8083 18.229 20.8761 18.1414 20.9267C18.0539 20.9774 17.9569 21.0097 17.8565 21.0219C17.7561 21.0341 17.6543 21.0259 17.5571 20.9977C17.46 20.9695 17.3695 20.922 17.2912 20.8579C17.213 20.7939 17.1484 20.7147 17.1015 20.625C16.6291 19.8251 15.9562 19.1621 15.1493 18.7015C14.3424 18.2409 13.4294 17.9987 12.5003 17.9987C11.5712 17.9987 10.6582 18.2409 9.85126 18.7015C9.04436 19.1621 8.37149 19.8251 7.89903 20.625C7.85215 20.7147 7.78762 20.7939 7.70932 20.8579C7.63102 20.922 7.54058 20.9695 7.44344 20.9977C7.34629 21.0259 7.24445 21.0341 7.14403 21.0219C7.04362 21.0097 6.94671 20.9774 6.85914 20.9267C6.77156 20.8761 6.69513 20.8083 6.63445 20.7274C6.57376 20.6464 6.53007 20.5541 6.50601 20.4558C6.48194 20.3576 6.478 20.2555 6.49441 20.1557C6.51083 20.0559 6.54727 19.9604 6.60153 19.875C7.32866 18.6257 8.43734 17.6426 9.76466 17.07C9.01778 16.4982 8.46887 15.7067 8.1951 14.8068C7.92132 13.9068 7.93644 12.9437 8.23833 12.0528C8.54022 11.1619 9.1137 10.388 9.87816 9.83993C10.6426 9.29182 11.5596 8.99704 12.5003 8.99704C13.4409 8.99704 14.3579 9.29182 15.1224 9.83993C15.8869 10.388 16.4603 11.1619 16.7622 12.0528C17.0641 12.9437 17.0792 13.9068 16.8055 14.8068C16.5317 15.7067 15.9828 16.4982 15.2359 17.07C16.5632 17.6426 17.6719 18.6257 18.399 19.875ZM12.5003 16.5C13.0936 16.5 13.6736 16.3241 14.167 15.9945C14.6603 15.6648 15.0449 15.1963 15.2719 14.6481C15.499 14.0999 15.5584 13.4967 15.4426 12.9148C15.3269 12.3328 15.0412 11.7983 14.6216 11.3787C14.202 10.9592 13.6675 10.6734 13.0856 10.5577C12.5036 10.4419 11.9004 10.5013 11.3522 10.7284C10.8041 10.9555 10.3355 11.34 10.0059 11.8333C9.67623 12.3267 9.50028 12.9067 9.50028 13.5C9.50028 14.2957 9.81635 15.0588 10.379 15.6214C10.9416 16.184 11.7046 16.5 12.5003 16.5ZM7.25028 11.25C7.25028 11.0511 7.17127 10.8604 7.03061 10.7197C6.88996 10.5791 6.6992 10.5 6.50028 10.5C6.07947 10.5 5.66709 10.382 5.31 10.1593C4.95292 9.93665 4.66543 9.61831 4.48019 9.24046C4.29495 8.8626 4.21939 8.44037 4.26209 8.02173C4.3048 7.60308 4.46405 7.2048 4.72176 6.87213C4.97947 6.53946 5.32531 6.28572 5.72 6.13975C6.11469 5.99378 6.54241 5.96142 6.95457 6.04634C7.36672 6.13127 7.7468 6.33008 8.05164 6.62019C8.35647 6.91031 8.57383 7.28009 8.67903 7.68755C8.72876 7.88024 8.853 8.04529 9.02442 8.14639C9.19584 8.24748 9.4004 8.27634 9.5931 8.22661C9.78579 8.17688 9.95084 8.05264 10.0519 7.88122C10.153 7.7098 10.1819 7.50524 10.1322 7.31255C9.98614 6.74753 9.71026 6.22439 9.32648 5.78475C8.9427 5.34511 8.46161 5.00111 7.92149 4.78012C7.38137 4.55913 6.79712 4.46725 6.21524 4.51179C5.63336 4.55633 5.06991 4.73606 4.56972 5.03668C4.06952 5.3373 3.64639 5.75051 3.33399 6.24344C3.02159 6.73636 2.82855 7.2954 2.77022 7.87606C2.7119 8.45672 2.7899 9.04297 2.99801 9.58819C3.20613 10.1334 3.53862 10.6225 3.96903 11.0166C2.95024 11.4586 2.0647 12.1593 1.40028 13.0491C1.28081 13.2082 1.22945 13.4083 1.25749 13.6053C1.28553 13.8023 1.39069 13.9801 1.54982 14.0996C1.70895 14.219 1.90902 14.2704 2.10602 14.2424C2.30302 14.2143 2.48081 14.1092 2.60028 13.95C3.05233 13.3424 3.64073 12.8494 4.31812 12.5107C4.99551 12.172 5.74295 11.9971 6.50028 12C6.6992 12 6.88996 11.921 7.03061 11.7804C7.17127 11.6397 7.25028 11.449 7.25028 11.25Z" fill="#7E8695"/>
</svg>
